<svg width="140" height="139" viewBox="0 0 140 139" fill="none" xmlns="http://www.w3.org/2000/svg">
<circle cx="70" cy="69.5" r="69.5" fill="#3772FF"/>
<path d="M57.0125 96.96C51.8392 96.96 47.4125 95.76 43.7325 93.36C40.0525 90.9067 37.1992 87.52 35.1725 83.2C33.1992 78.8267 32.2125 73.76 32.2125 68C32.2125 62.2933 33.1992 57.2533 35.1725 52.88C37.1992 48.5067 40.0525 45.12 43.7325 42.72C47.4125 40.2667 51.8392 39.04 57.0125 39.04C62.1858 39.04 66.6125 40.2667 70.2925 42.72C73.9725 45.12 76.7992 48.5067 78.7725 52.88C80.7992 57.2533 81.8125 62.2933 81.8125 68C81.8125 73.76 80.7992 78.8267 78.7725 83.2C76.7992 87.52 73.9725 90.9067 70.2925 93.36C66.6125 95.76 62.1858 96.96 57.0125 96.96ZM57.0125 87.76C61.2258 87.76 64.6658 86 67.3325 82.48C69.9992 78.96 71.3325 74.1333 71.3325 68C71.3325 61.8667 69.9992 57.04 67.3325 53.52C64.6658 50 61.2258 48.24 57.0125 48.24C52.7458 48.24 49.2792 50 46.6125 53.52C43.9992 57.04 42.6925 61.8667 42.6925 68C42.6925 74.1333 43.9992 78.96 46.6125 82.48C49.2792 86 52.7458 87.76 57.0125 87.76ZM95.3294 96V51.68L86.1294 53.84V46L99.6494 40H105.969V96H95.3294Z" fill="white"/>
</svg>
