<svg width="140" height="139" viewBox="0 0 140 139" fill="none" xmlns="http://www.w3.org/2000/svg">
<circle cx="70" cy="69.5" r="69.5" fill="#3772FF"/>
<path d="M48.1453 96.96C42.972 96.96 38.5453 95.76 34.8653 93.36C31.1853 90.9067 28.332 87.52 26.3053 83.2C24.332 78.8267 23.3453 73.76 23.3453 68C23.3453 62.2933 24.332 57.2533 26.3053 52.88C28.332 48.5067 31.1853 45.12 34.8653 42.72C38.5453 40.2667 42.972 39.04 48.1453 39.04C53.3186 39.04 57.7453 40.2667 61.4253 42.72C65.1053 45.12 67.932 48.5067 69.9053 52.88C71.932 57.2533 72.9453 62.2933 72.9453 68C72.9453 73.76 71.932 78.8267 69.9053 83.2C67.932 87.52 65.1053 90.9067 61.4253 93.36C57.7453 95.76 53.3186 96.96 48.1453 96.96ZM48.1453 87.76C52.3586 87.76 55.7986 86 58.4653 82.48C61.132 78.96 62.4653 74.1333 62.4653 68C62.4653 61.8667 61.132 57.04 58.4653 53.52C55.7986 50 52.3586 48.24 48.1453 48.24C43.8786 48.24 40.412 50 37.7453 53.52C35.132 57.04 33.8253 61.8667 33.8253 68C33.8253 74.1333 35.132 78.96 37.7453 82.48C40.412 86 43.8786 87.76 48.1453 87.76ZM78.6316 96V88.56C82.0449 85.7333 85.3516 82.9333 88.5516 80.16C91.8049 77.3867 94.6849 74.64 97.1916 71.92C99.7516 69.2 101.778 66.56 103.272 64C104.818 61.3867 105.592 58.8533 105.592 56.4C105.592 54.1067 104.952 52.08 103.672 50.32C102.445 48.56 100.392 47.68 97.5116 47.68C94.5782 47.68 92.3649 48.64 90.8716 50.56C89.3782 52.48 88.6316 54.8 88.6316 57.52H78.7116C78.8182 53.4133 79.7249 50 81.4316 47.28C83.1382 44.5067 85.4049 42.4533 88.2316 41.12C91.0582 39.7333 94.2316 39.04 97.7516 39.04C103.458 39.04 107.885 40.6133 111.032 43.76C114.232 46.8533 115.832 50.88 115.832 55.84C115.832 58.9333 115.112 61.9467 113.672 64.88C112.285 67.8133 110.445 70.64 108.152 73.36C105.858 76.08 103.378 78.64 100.712 81.04C98.0449 83.3867 95.4582 85.5733 92.9516 87.6H117.192V96H78.6316Z" fill="white"/>
</svg>
