<svg width="140" height="139" viewBox="0 0 140 139" fill="none" xmlns="http://www.w3.org/2000/svg">
<circle cx="70" cy="69.5" r="69.5" fill="#3772FF"/>
<path d="M46.9734 96.96C41.8001 96.96 37.3734 95.76 33.6934 93.36C30.0134 90.9067 27.1601 87.52 25.1334 83.2C23.1601 78.8267 22.1734 73.76 22.1734 68C22.1734 62.2933 23.1601 57.2533 25.1334 52.88C27.1601 48.5067 30.0134 45.12 33.6934 42.72C37.3734 40.2667 41.8001 39.04 46.9734 39.04C52.1468 39.04 56.5734 40.2667 60.2534 42.72C63.9334 45.12 66.7601 48.5067 68.7334 52.88C70.7601 57.2533 71.7734 62.2933 71.7734 68C71.7734 73.76 70.7601 78.8267 68.7334 83.2C66.7601 87.52 63.9334 90.9067 60.2534 93.36C56.5734 95.76 52.1468 96.96 46.9734 96.96ZM46.9734 87.76C51.1868 87.76 54.6268 86 57.2934 82.48C59.9601 78.96 61.2934 74.1333 61.2934 68C61.2934 61.8667 59.9601 57.04 57.2934 53.52C54.6268 50 51.1868 48.24 46.9734 48.24C42.7068 48.24 39.2401 50 36.5734 53.52C33.9601 57.04 32.6534 61.8667 32.6534 68C32.6534 74.1333 33.9601 78.96 36.5734 82.48C39.2401 86 42.7068 87.76 46.9734 87.76ZM97.5303 96.96C93.8503 96.96 90.517 96.32 87.5303 95.04C84.5436 93.7067 82.1436 91.68 80.3303 88.96C78.517 86.24 77.557 82.8267 77.4503 78.72H87.5303C87.5836 81.44 88.4636 83.7333 90.1703 85.6C91.9303 87.4133 94.3836 88.32 97.5303 88.32C100.517 88.32 102.81 87.4933 104.41 85.84C106.01 84.1867 106.81 82.1067 106.81 79.6C106.81 76.6667 105.744 74.4533 103.61 72.96C101.53 71.4133 98.837 70.64 95.5303 70.64H91.3703V62.24H95.6103C98.3303 62.24 100.597 61.6 102.41 60.32C104.224 59.04 105.13 57.1467 105.13 54.64C105.13 52.56 104.437 50.9067 103.05 49.68C101.717 48.4 99.8503 47.76 97.4503 47.76C94.837 47.76 92.7836 48.5333 91.2903 50.08C89.8503 51.6267 89.0503 53.52 88.8903 55.76H78.8903C79.1036 50.5867 80.8903 46.5067 84.2503 43.52C87.6636 40.5333 92.0636 39.04 97.4503 39.04C101.29 39.04 104.517 39.7333 107.13 41.12C109.797 42.4533 111.797 44.24 113.13 46.48C114.517 48.72 115.21 51.2 115.21 53.92C115.21 57.0667 114.33 59.7333 112.57 61.92C110.864 64.0533 108.73 65.4933 106.17 66.24C109.317 66.88 111.877 68.4267 113.85 70.88C115.824 73.28 116.81 76.32 116.81 80C116.81 83.0933 116.064 85.92 114.57 88.48C113.077 91.04 110.89 93.0933 108.01 94.64C105.184 96.1867 101.69 96.96 97.5303 96.96Z" fill="white"/>
</svg>
