<svg width="140" height="139" viewBox="0 0 140 139" fill="none" xmlns="http://www.w3.org/2000/svg">
<circle cx="70" cy="69.5" r="69.5" fill="#3772FF"/>
<path d="M45.1766 96.96C40.0032 96.96 35.5766 95.76 31.8966 93.36C28.2166 90.9067 25.3632 87.52 23.3366 83.2C21.3632 78.8267 20.3766 73.76 20.3766 68C20.3766 62.2933 21.3632 57.2533 23.3366 52.88C25.3632 48.5067 28.2166 45.12 31.8966 42.72C35.5766 40.2667 40.0032 39.04 45.1766 39.04C50.3499 39.04 54.7766 40.2667 58.4566 42.72C62.1366 45.12 64.9632 48.5067 66.9366 52.88C68.9632 57.2533 69.9766 62.2933 69.9766 68C69.9766 73.76 68.9632 78.8267 66.9366 83.2C64.9632 87.52 62.1366 90.9067 58.4566 93.36C54.7766 95.76 50.3499 96.96 45.1766 96.96ZM45.1766 87.76C49.3899 87.76 52.8299 86 55.4966 82.48C58.1632 78.96 59.4966 74.1333 59.4966 68C59.4966 61.8667 58.1632 57.04 55.4966 53.52C52.8299 50 49.3899 48.24 45.1766 48.24C40.9099 48.24 37.4432 50 34.7766 53.52C32.1632 57.04 30.8566 61.8667 30.8566 68C30.8566 74.1333 32.1632 78.96 34.7766 82.48C37.4432 86 40.9099 87.76 45.1766 87.76ZM103.013 96V85.6H75.4134V77.44L101.653 40H113.253V76.72H120.613V85.6H113.253V96H103.013ZM86.3734 76.72H103.653V51.28L86.3734 76.72Z" fill="white"/>
</svg>
