<svg width="56" height="56" viewBox="0 0 56 56" fill="none" xmlns="http://www.w3.org/2000/svg">
<rect width="56" height="56" rx="28" fill="#23262F"/>
<path fill-rule="evenodd" clip-rule="evenodd" d="M29.3137 38.3726C28.8284 38.1716 28.4142 38 28 38C27.5858 38 27.1716 38.1716 26.6863 38.3726C26 38.6569 25.1716 39 24 39C21 39 19 33.9998 19 30C19 26.0002 20 22 24 22C25.0718 22 25.7128 22.2872 26.3078 22.5538C26.8231 22.7846 27.3038 23 28 23C28.6962 23 29.1769 22.7846 29.6922 22.5538C30.2872 22.2872 30.9282 22 32 22C34.2181 22 35.5138 23.2301 36.2279 25.0081L36.2336 25.0223C36.3336 25.2727 36.422 25.5339 36.5 25.8039C36.5876 26.1074 36.6619 26.4221 36.7243 26.7454C36.7503 26.8801 36.6372 27 36.5 27C35.1193 27 34 28.1193 34 29.5C34 30.8807 35.1193 32 36.5 32C36.6754 32 36.8243 32.1495 36.7946 32.3224C36.7171 32.7724 36.6185 33.2208 36.5 33.6602C36.4696 33.773 36.4378 33.8853 36.4048 33.9968L36.4041 33.999C35.599 36.7152 34.028 39 32 39C30.8284 39 30 38.6569 29.3137 38.3726ZM28 36C27.1714 36 26.4155 36.3174 26.0073 36.4887C25.3592 36.7608 24.713 37 24 37C23.7 37 22.9584 36.6947 22.1638 35.1055C21.4377 33.6533 21 31.7127 21 30C21 28.1022 21.2478 26.4766 21.7889 25.3945C22.0452 24.8817 22.3359 24.5548 22.6407 24.3516C22.9329 24.1568 23.35 24 24 24C24.3466 24 24.5903 24.0449 24.7842 24.1002C24.9968 24.1609 25.1841 24.2418 25.4901 24.379L25.5399 24.4013C26.0616 24.6356 26.8731 25 28 25C29.1269 25 29.9384 24.6356 30.4602 24.4013L30.5099 24.379C30.8159 24.2419 31.0032 24.1609 31.2158 24.1002C31.4097 24.0449 31.6534 24 32 24C32.7144 24 33.1538 24.1887 33.4605 24.424C33.7602 24.654 34.0486 25.0193 34.2966 25.5754C32.9259 26.3466 32 27.8152 32 29.5C32 31.2517 33.0008 32.7696 34.4618 33.5131C34.1105 34.6679 33.6292 35.6219 33.1142 36.2498C32.5826 36.898 32.1964 37 32 37C31.287 37 30.6408 36.7608 29.9927 36.4887C29.5845 36.3174 28.8286 36 28 36Z" fill="#FCFCFD"/>
<path d="M28 20.75C28 18.6789 29.6789 17 31.75 17C31.8881 17 32 17.1119 32 17.25C32 19.3211 30.3211 21 28.25 21C28.1119 21 28 20.8881 28 20.75Z" fill="#FCFCFD"/>
</svg>
