<svg width="20" height="24" viewBox="0 0 20 24" fill="none" xmlns="http://www.w3.org/2000/svg">
<path fill-rule="evenodd" clip-rule="evenodd" d="M9.99999 22.3332C14.6024 22.3332 18.3333 18.6022 18.3333 13.9998C18.3333 9.39746 14.6024 5.6665 9.99999 5.6665C5.39762 5.6665 1.66666 9.39746 1.66666 13.9998C1.66666 18.6022 5.39762 22.3332 9.99999 22.3332ZM14.8738 12.2069C15.2643 11.8164 15.2643 11.1833 14.8738 10.7927C14.4832 10.4022 13.8501 10.4022 13.4595 10.7927L9.16666 15.0856L7.37376 13.2927C6.98324 12.9022 6.35007 12.9022 5.95955 13.2927C5.56903 13.6833 5.56903 14.3164 5.95955 14.7069L8.45955 17.2069C8.85007 17.5975 9.48324 17.5975 9.87376 17.2069L14.8738 12.2069Z" fill="#3772FF"/>
</svg>
