<svg width="131" height="74" viewBox="0 0 131 74" fill="none" xmlns="http://www.w3.org/2000/svg">
<g clip-path="url(#clip0_37_1599)">
<path d="M103.656 2.22459L94.3731 40.1418L85.0639 2.22459H57.7592V16.2258C54.4806 3.9718 42.9145 0.892011 32.1954 0.71729C19.1412 0.547784 5.44843 6.22754 4.94283 23.5615H23.0061C23.0061 18.3277 27.0039 15.3313 31.5074 15.4017C37.0324 15.3626 39.5839 17.7279 39.7168 21.4257C39.5239 24.6281 37.6397 26.8629 31.5491 26.8629H25.4767V39.4507H30.9914C34.1187 39.4507 38.4814 41.1562 38.6535 45.6364C38.8646 50.9719 35.1612 53.3293 30.6187 53.3684C22.4901 53.0738 21.1766 46.7968 21.1766 41.4118H2.43311C2.5139 45.0366 1.6252 68.6892 31.0122 68.5171C45.0881 68.6474 54.9159 62.7069 57.8009 54.5185V67.0645H76.2994V26.1719L86.2992 67.0749H102.46L112.499 26.211V67.1167H130.95V2.22459H103.656ZM57.8087 40.0505C55.5101 35.2652 52.2732 33.1712 50.4411 32.5114C54.2643 30.8033 56.2789 28.4876 57.8087 23.864V40.0505Z" fill="#FF0000"/>
</g>
<defs>
<clipPath id="clip0_37_1599">
<rect width="131" height="72.6398" fill="white" transform="translate(0 0.547852)"/>
</clipPath>
</defs>
</svg>
