<svg width="131" height="74" viewBox="0 0 131 74" fill="none" xmlns="http://www.w3.org/2000/svg">
<g clip-path="url(#clip0_37_677)">
<path d="M103.656 2.18521L94.3728 40.2904L85.0636 2.18521H57.7589V16.2558C54.4804 3.94109 42.9143 0.846021 32.1952 0.670433C19.1409 0.500086 5.44818 6.208 4.94259 23.6279H23.0059C23.0059 18.3681 27.0037 15.3569 31.5071 15.4277C37.0322 15.3884 39.5836 17.7654 39.7165 21.4815C39.5237 24.6998 37.6394 26.9457 31.5488 26.9457H25.4765V39.5959H30.9911C34.1185 39.5959 38.4812 41.3099 38.6532 45.8122C38.8643 51.1742 35.161 53.5433 30.6184 53.5827C22.4898 53.2865 21.1763 46.9785 21.1763 41.5667H2.43286C2.51365 45.2095 1.62495 68.9794 31.012 68.8064C45.0878 68.9374 54.9156 62.9674 57.8006 54.7384V67.3466H76.2991V26.2512L86.299 67.3571H102.46L112.499 26.2905V67.3991H130.95V2.18521H103.656ZM57.8085 40.1987C55.5098 35.3897 52.273 33.2852 50.4409 32.6222C54.2641 30.9056 56.2786 28.5784 57.8085 23.9319V40.1987Z" fill="#828282"/>
</g>
<defs>
<clipPath id="clip0_37_677">
<rect width="131" height="73" fill="white" transform="translate(0 0.5)"/>
</clipPath>
</defs>
</svg>
