<svg width="227" height="69" viewBox="0 0 227 69" fill="none" xmlns="http://www.w3.org/2000/svg">
<path d="M50.9609 17.1811V38.2235C50.9609 38.5646 50.8248 38.8917 50.5826 39.1329C50.3404 39.3741 50.012 39.5096 49.6695 39.5096H42.9994C42.657 39.5094 42.3286 39.3739 42.0864 39.1327C41.8443 38.8916 41.7082 38.5646 41.708 38.2235V3.99696C41.708 3.65587 41.8441 3.32875 42.0862 3.08756C42.3284 2.84637 42.6569 2.71087 42.9994 2.71087H49.1718C49.5143 2.71087 49.8428 2.84637 50.085 3.08756C50.3271 3.32875 50.4632 3.65587 50.4632 3.99696V8.81696C50.4632 8.81696 52.6697 1.94137 59.2178 1.94137C59.2178 1.94137 65.6949 1.16167 68.3284 8.32079C68.3284 8.32079 70.5348 1.94137 77.2253 1.94137C77.2253 1.94137 87.1752 1.3522 87.1752 11.6052L87.2509 17.252V38.2944C87.2509 38.6355 87.1148 38.9626 86.8727 39.2038C86.6305 39.445 86.302 39.5805 85.9595 39.5805H79.2889C78.9464 39.5803 78.618 39.4448 78.3759 39.2036C78.1337 38.9625 77.9976 38.6354 77.9975 38.2944L77.9365 15.3381C78.1261 10.1399 73.9034 10.5181 73.9034 10.5181C68.5891 10.6128 69.1005 17.252 69.1005 17.252V38.2944C69.1005 38.6355 68.9644 38.9626 68.7222 39.2038C68.48 39.445 68.1516 39.5805 67.8091 39.5805H61.139C60.7966 39.5803 60.4682 39.4448 60.226 39.2036C59.9839 38.9625 59.8478 38.6354 59.8476 38.2944V15.8576C59.8476 15.8576 60.2377 10.4705 55.4922 10.4705C55.4928 10.4705 50.7952 9.85638 50.9609 17.1811ZM222.896 17.1181V38.16C222.896 38.501 222.76 38.8281 222.518 39.0692C222.276 39.3104 221.947 39.4459 221.605 39.4461L214.668 39.5799C214.325 39.5798 213.997 39.4442 213.755 39.2031C213.513 38.9619 213.376 38.6349 213.376 38.2938V15.8576C213.376 15.8576 213.766 10.4705 209.021 10.4705C209.021 10.4705 204.49 10.2482 204.49 18.6946V38.2229C204.489 38.564 204.353 38.891 204.111 39.1322C203.869 39.3733 203.541 39.5089 203.198 39.509H196.528C196.185 39.5089 195.857 39.3733 195.615 39.1322C195.372 38.891 195.236 38.564 195.236 38.2229V3.99696C195.236 3.65592 195.372 3.32888 195.615 3.08773C195.857 2.84657 196.185 2.71102 196.528 2.71087H202.7C203.042 2.71087 203.371 2.84637 203.613 3.08756C203.855 3.32875 203.991 3.65587 203.991 3.99696V8.81696C203.991 8.81696 206.198 1.94137 212.746 1.94137C212.746 1.94137 219.76 0.881542 222.123 8.18753C222.124 8.18696 222.896 9.6942 222.896 17.1181ZM174.736 1.79961C166.206 1.79961 159.291 8.95873 159.291 21.0087C159.291 31.6178 164.629 40.2178 174.736 40.2178C184.273 40.2178 190.181 31.6178 190.181 21.0087C190.181 9.17137 183.266 1.79961 174.736 1.79961ZM180.12 21.434C180.12 25.9705 179.55 28.3805 179.55 28.3805C178.74 33.1761 175.244 33.1829 174.729 33.1574C174.173 33.1795 170.647 33.1296 169.918 28.3805C169.918 28.3805 169.349 25.9705 169.349 21.434V20.6781C169.349 16.1417 169.918 13.7317 169.918 13.7317C170.647 8.98254 174.173 8.93264 174.729 8.95419C175.244 8.92867 178.74 8.93491 179.55 13.7317C179.55 13.7317 180.12 16.1417 180.12 20.6781V21.434ZM155.419 8.76933V3.8586C155.419 3.51755 155.283 3.19052 155.041 2.94936C154.799 2.70821 154.47 2.57266 154.128 2.57251H132.08C131.738 2.57251 131.409 2.70801 131.167 2.9492C130.925 3.19039 130.789 3.51751 130.789 3.8586V8.73134C130.789 9.07238 130.925 9.39942 131.167 9.64057C131.409 9.88173 131.738 10.0173 132.08 10.0174H143.581L129.968 29.683C129.968 29.683 129.432 30.4803 129.45 31.361V37.3429C129.45 37.3429 129.361 39.3939 131.697 38.2037C131.697 38.2037 135.845 35.7075 142.802 35.7075C142.802 35.7075 149.672 35.6224 154.252 38.4186C154.252 38.4186 156.153 39.2794 156.153 37.3865V32.1798C156.153 32.1798 156.326 30.8018 154.511 29.9416C154.511 29.9416 149.239 27.0587 142.326 27.5316L155.419 8.76933ZM36.56 33.3888L34.472 30.2234C33.8075 29.0417 33.8553 27.7182 33.8553 27.7182V13.117C34.14 0.49991 20.0944 1.58696 20.0944 1.58696C7.60849 1.58696 5.76418 11.2638 5.76418 11.2638C5.24374 13.2094 6.75722 13.2565 6.75722 13.2565L12.8584 13.8729C12.8584 13.8729 13.8987 14.1099 14.2774 12.8765C14.2774 12.8765 15.0808 8.65478 19.574 8.65478C24.4629 8.65478 24.4123 12.8334 24.4123 12.8334V16.3316C14.6526 16.6566 10.1298 19.3546 10.1298 19.3546C4.10379 22.757 4.48301 29.5146 4.48301 29.5146C4.48301 40.5246 15.017 40.0517 15.017 40.0517C21.7548 40.0517 25.7407 35.1376 25.7407 35.1376C26.9268 37.2175 29.1099 39.2011 29.1099 39.2011C30.202 40.3806 31.3402 39.3905 31.3402 39.3905L36.2753 35.1852C37.3663 34.3811 36.56 33.3888 36.56 33.3888ZM18.3054 33.2527C15.136 33.2527 13.9579 30.1163 14.4841 27.0337C15.0108 23.9512 17.7462 21.5287 24.4128 21.5996V23.4737C24.6491 31.6609 20.9434 33.2527 18.3054 33.2527ZM125.197 33.3888L123.11 30.2234C122.445 29.0417 122.493 27.7182 122.493 27.7182V13.117C122.777 0.49991 108.732 1.58696 108.732 1.58696C96.2458 1.58696 94.4015 11.2638 94.4015 11.2638C93.8811 13.2094 95.3946 13.2565 95.3946 13.2565L101.496 13.8729C101.496 13.8729 102.536 14.1099 102.915 12.8765C102.915 12.8765 103.718 8.65478 108.211 8.65478C113.1 8.65478 113.05 12.8334 113.05 12.8334V16.3316C103.291 16.6566 98.7672 19.3546 98.7672 19.3546C92.7411 22.757 93.1203 29.5146 93.1203 29.5146C93.1203 40.5246 103.654 40.0517 103.654 40.0517C110.392 40.0517 114.378 35.1376 114.378 35.1376C115.565 37.2175 117.747 39.2011 117.747 39.2011C118.839 40.3806 119.978 39.3905 119.978 39.3905L124.912 35.1852C126.004 34.3811 125.197 33.3888 125.197 33.3888ZM106.943 33.2527C103.773 33.2527 102.595 30.1163 103.121 27.0337C103.648 23.9512 106.384 21.5287 113.05 21.5996V23.4737C113.286 31.6609 109.581 33.2527 106.943 33.2527Z" fill="#828282"/>
<path d="M141.993 61.0262C141.993 61.0262 141.435 61.9931 142.12 62.2091C142.12 62.2091 142.894 62.5102 143.86 61.6177C143.86 61.6177 150.903 55.4906 151.073 44.3354C151.073 44.3354 151.125 42.9422 150.563 42.5611C150.563 42.5611 148.357 40.6172 140.423 41.2087C140.423 41.2087 133.507 41.6737 129.731 45.0119C129.731 45.0119 129.392 45.3074 129.392 45.6873C129.392 45.6873 129.31 46.5078 131.386 46.1523C131.386 46.1523 138.301 45.1798 142.417 45.6873C142.417 45.6873 144.539 45.9408 145.133 46.6598C145.133 46.6598 146.109 47.4628 145.599 50.124C145.599 50.1251 144.198 56.8856 141.993 61.0262Z" fill="#828282"/>
<path d="M140.598 50.3241C140.598 50.3241 141.631 51.6567 139.964 52.8061C139.964 52.8061 122.161 66.9883 92.2668 66.9883C92.2668 66.9883 61.4949 68.5 35.8004 45.2506C35.8004 45.2506 34.8996 44.463 35.4587 43.7309C35.4587 43.7309 35.9587 43.0572 37.2529 43.7899C37.2529 43.7899 61.4237 58.7892 93.1681 58.7892C93.1681 58.7892 115.233 59.6397 137.867 49.9997C137.867 49.9997 139.67 49.0692 140.598 50.3241Z" fill="#828282"/>
</svg>
