<svg width="227" height="69" viewBox="0 0 227 69" fill="none" xmlns="http://www.w3.org/2000/svg">
<path d="M50.9609 17.298V38.4276C50.9609 38.7701 50.8248 39.0985 50.5826 39.3407C50.3404 39.5829 50.012 39.719 49.6694 39.719H42.9994C42.657 39.7188 42.3286 39.5827 42.0864 39.3406C41.8443 39.0984 41.7082 38.77 41.708 38.4276V4.05929C41.708 3.71678 41.8441 3.3883 42.0862 3.14612C42.3284 2.90393 42.6569 2.76787 42.9994 2.76787H49.1718C49.5143 2.76787 49.8428 2.90393 50.085 3.14612C50.3271 3.3883 50.4632 3.71678 50.4632 4.05929V8.89925C50.4632 8.89925 52.6697 1.99519 59.2178 1.99519C59.2178 1.99519 65.6948 1.21225 68.3284 8.40102C68.3284 8.40102 70.5348 1.99519 77.2253 1.99519C77.2253 1.99519 87.1752 1.40357 87.1752 11.699L87.2509 17.3692V38.4987C87.2509 38.8412 87.1148 39.1697 86.8727 39.4119C86.6305 39.6541 86.302 39.7902 85.9595 39.7902H79.2889C78.9464 39.79 78.618 39.6539 78.3759 39.4117C78.1337 39.1696 77.9976 38.8412 77.9975 38.4987L77.9365 15.4474C78.1261 10.2277 73.9034 10.6075 73.9034 10.6075C68.5891 10.7026 69.1005 17.3692 69.1005 17.3692V38.4987C69.1005 38.8412 68.9644 39.1697 68.7222 39.4119C68.48 39.6541 68.1516 39.7902 67.8091 39.7902H61.139C60.7966 39.79 60.4682 39.6539 60.226 39.4117C59.9839 39.1696 59.8478 38.8412 59.8476 38.4987V15.969C59.8476 15.969 60.2377 10.5596 55.4922 10.5596C55.4928 10.5596 50.7952 9.94297 50.9609 17.298ZM222.896 17.2348V38.3638C222.896 38.7063 222.76 39.0346 222.518 39.2768C222.276 39.519 221.947 39.6551 221.605 39.6552L214.668 39.7896C214.325 39.7894 213.997 39.6533 213.755 39.4112C213.513 39.169 213.376 38.8406 213.376 38.4982V15.969C213.376 15.969 213.766 10.5596 209.021 10.5596C209.021 10.5596 204.49 10.3364 204.49 18.8178V38.427C204.489 38.7695 204.353 39.0978 204.111 39.34C203.869 39.5822 203.541 39.7183 203.198 39.7184H196.528C196.185 39.7183 195.857 39.5822 195.615 39.34C195.372 39.0978 195.236 38.7695 195.236 38.427V4.05929C195.236 3.71683 195.372 3.38844 195.615 3.14628C195.857 2.90413 196.185 2.76802 196.528 2.76787H202.7C203.042 2.76787 203.371 2.90393 203.613 3.14612C203.855 3.3883 203.991 3.71678 203.991 4.05929V8.89925C203.991 8.89925 206.198 1.99519 212.746 1.99519C212.746 1.99519 219.76 0.930963 222.123 8.26721C222.124 8.26664 222.896 9.78012 222.896 17.2348ZM174.736 1.85283C166.206 1.85283 159.291 9.0416 159.291 21.1415C159.291 31.7945 164.629 40.4302 174.736 40.4302C184.273 40.4302 190.181 31.7945 190.181 21.1415C190.181 9.25513 183.266 1.85283 174.736 1.85283ZM180.12 21.5686C180.12 26.1238 179.55 28.5438 179.55 28.5438C178.74 33.3593 175.244 33.3661 174.729 33.3405C174.173 33.3627 170.647 33.3126 169.918 28.5438C169.918 28.5438 169.349 26.1238 169.349 21.5686V20.8095C169.349 16.2543 169.918 13.8343 169.918 13.8343C170.647 9.06551 174.173 9.01541 174.729 9.03704C175.244 9.01142 178.74 9.01768 179.55 13.8343C179.55 13.8343 180.12 16.2543 180.12 20.8095V21.5686ZM155.419 8.85142V3.92035C155.419 3.57789 155.283 3.2495 155.041 3.00735C154.799 2.76519 154.47 2.62909 154.128 2.62894H132.08C131.738 2.62894 131.409 2.76499 131.167 3.00718C130.925 3.24937 130.789 3.57785 130.789 3.92035V8.81327C130.789 9.15573 130.925 9.48411 131.167 9.72627C131.409 9.96842 131.738 10.1045 132.08 10.1047H143.581L129.968 29.8517C129.968 29.8517 129.432 30.6523 129.45 31.5366V37.5433C129.45 37.5433 129.361 39.6028 131.697 38.4076C131.697 38.4076 135.845 35.9011 142.802 35.9011C142.802 35.9011 149.672 35.8157 154.252 38.6234C154.252 38.6234 156.153 39.4878 156.153 37.5871V32.3588C156.153 32.3588 156.326 30.9752 154.511 30.1114C154.511 30.1114 149.239 27.2165 142.326 27.6914L155.419 8.85142ZM36.56 33.5728L34.472 30.3944C33.8075 29.2077 33.8553 27.8787 33.8553 27.8787V13.2171C34.14 0.547752 20.0944 1.63931 20.0944 1.63931C7.60849 1.63931 5.76418 11.3562 5.76418 11.3562C5.24374 13.3099 6.75722 13.3571 6.75722 13.3571L12.8584 13.9761C12.8584 13.9761 13.8987 14.2141 14.2774 12.9756C14.2774 12.9756 15.0808 8.7364 19.574 8.7364C24.4629 8.7364 24.4123 12.9324 24.4123 12.9324V16.445C14.6526 16.7713 10.1298 19.4805 10.1298 19.4805C4.10379 22.897 4.48301 29.6826 4.48301 29.6826C4.48301 40.7382 15.017 40.2633 15.017 40.2633C21.7548 40.2633 25.7407 35.3289 25.7407 35.3289C26.9268 37.4174 29.1099 39.4092 29.1099 39.4092C30.202 40.5936 31.3402 39.5994 31.3402 39.5994L36.2753 35.3767C37.3663 34.5693 36.56 33.5728 36.56 33.5728ZM18.3054 33.4361C15.136 33.4361 13.9579 30.2868 14.4841 27.1915C15.0108 24.0962 17.7462 21.6636 24.4128 21.7348V23.6167C24.6491 31.8378 20.9434 33.4361 18.3054 33.4361ZM125.197 33.5728L123.11 30.3944C122.445 29.2077 122.493 27.8787 122.493 27.8787V13.2171C122.777 0.547752 108.732 1.63931 108.732 1.63931C96.2458 1.63931 94.4015 11.3562 94.4015 11.3562C93.8811 13.3099 95.3946 13.3571 95.3946 13.3571L101.496 13.9761C101.496 13.9761 102.536 14.2141 102.915 12.9756C102.915 12.9756 103.718 8.7364 108.211 8.7364C113.1 8.7364 113.05 12.9324 113.05 12.9324V16.445C103.291 16.7713 98.7672 19.4805 98.7672 19.4805C92.7411 22.897 93.1203 29.6826 93.1203 29.6826C93.1203 40.7382 103.654 40.2633 103.654 40.2633C110.392 40.2633 114.378 35.3289 114.378 35.3289C115.565 37.4174 117.747 39.4092 117.747 39.4092C118.839 40.5936 119.978 39.5994 119.978 39.5994L124.912 35.3767C126.004 34.5693 125.197 33.5728 125.197 33.5728ZM106.943 33.4361C103.773 33.4361 102.595 30.2868 103.121 27.1915C103.648 24.0962 106.384 21.6636 113.05 21.7348V23.6167C113.286 31.8378 109.581 33.4361 106.943 33.4361Z" fill="white"/>
<path d="M141.993 61.3246C141.993 61.3246 141.435 62.2954 142.12 62.5124C142.12 62.5124 142.895 62.8147 143.86 61.9185C143.86 61.9185 150.903 55.766 151.073 44.5647C151.073 44.5647 151.125 43.1656 150.563 42.783C150.563 42.783 148.357 40.8311 140.423 41.425C140.423 41.425 133.507 41.8919 129.731 45.244C129.731 45.244 129.392 45.5406 129.392 45.9221C129.392 45.9221 129.31 46.7461 131.386 46.389C131.386 46.389 138.301 45.4125 142.417 45.9221C142.417 45.9221 144.539 46.1767 145.133 46.8987C145.133 46.8987 146.109 47.7049 145.599 50.3772C145.599 50.3783 144.199 57.1668 141.993 61.3246Z" fill="#F3971B"/>
<path d="M140.598 50.5782C140.598 50.5782 141.631 51.9163 139.964 53.0705C139.964 53.0705 122.161 67.3113 92.2669 67.3113C92.2669 67.3113 61.495 68.8294 35.8005 45.4837C35.8005 45.4837 34.8997 44.6928 35.4589 43.9577C35.4589 43.9577 35.9588 43.2812 37.2531 44.0169C37.2531 44.0169 61.4238 59.0783 93.1683 59.0783C93.1683 59.0783 115.233 59.9324 137.867 50.2525C137.867 50.2525 139.67 49.3181 140.598 50.5782Z" fill="#F3971B"/>
</svg>
