<svg width="105" height="73" viewBox="0 0 105 73" fill="none" xmlns="http://www.w3.org/2000/svg">
<g clip-path="url(#clip0_37_582)">
<path fill-rule="evenodd" clip-rule="evenodd" d="M34.1393 1.49663L22.6888 0.499268V0.698859L1.56375 19.2477L-0.0158691 44.3776L17.3582 65.72L23.8729 66.3182L99.6852 72.5001L105.015 7.27997L34.1393 1.49663Z" fill="#828282" stroke="#333333" stroke-width="4.25495" stroke-miterlimit="2.613"/>
<path fill-rule="evenodd" clip-rule="evenodd" d="M10.2505 32.6107C10.2505 34.2069 8.86828 35.6028 7.28926 35.6028C5.51219 35.6028 4.13062 34.2069 4.13062 32.6107C4.13062 30.8156 5.51278 29.4197 7.28926 29.4197C8.86888 29.4197 10.2505 30.8156 10.2505 32.6107Z" fill="white" stroke="#333333" stroke-width="2.12671" stroke-miterlimit="2.613"/>
<path fill-rule="evenodd" clip-rule="evenodd" d="M27.2296 20.6436L27.4265 17.8511L28.2163 18.0507C29.4004 18.0507 31.1775 18.0507 30.98 19.6462C30.98 20.8431 29.4004 20.8431 28.0189 20.8431L27.2296 20.6436ZM17.9506 32.0125L30.1914 33.0098C34.7322 33.4084 39.4699 32.411 39.8648 28.4222C40.0623 26.0289 38.4827 24.4334 35.7189 23.436V23.2364C38.0883 22.8379 39.2725 21.2423 39.4699 19.6462C39.8648 15.0592 34.9291 13.8622 29.9934 13.4637L19.5296 12.4663L17.9506 32.0125ZM27.0316 24.832H27.8214C29.401 25.0316 31.5724 25.2312 31.5724 26.8267C31.375 28.4222 29.2036 28.2226 27.6239 28.2226L26.6373 28.0236L27.0316 24.832ZM42.2337 14.461L59.0159 15.857L58.6204 21.0427L50.921 20.4446L50.7235 22.4387L57.8306 23.0374L57.4357 28.0236L50.3286 27.4249L50.1306 29.4196L58.2255 30.0177L57.8306 35.4031L40.6546 33.8076L42.2337 14.461ZM61.9771 28.6218L62.372 29.021C63.9511 30.0183 65.7269 31.0157 67.8995 31.2153C68.6881 31.2153 70.2683 31.2153 70.2683 30.2179C70.4658 29.4202 69.2811 29.2206 68.2944 29.021L66.5167 28.6218C62.9632 27.824 60.1989 25.8293 60.3963 22.8379C60.7912 18.2503 66.5167 16.0566 71.848 16.6547C74.808 16.8543 77.3754 17.6521 79.7443 18.849L76.7831 23.6356C75.4003 22.8379 73.6244 22.0401 71.6505 21.8405C70.8607 21.6409 69.6754 21.8405 69.6754 22.6383C69.4779 23.436 70.6627 23.6356 71.4531 23.8352L73.427 24.2338C77.1786 25.2318 79.9423 27.2259 79.5474 30.4169C79.1525 35.0039 73.625 36.9992 68.097 36.3999C64.9383 36.2009 61.3842 35.2035 58.6204 34.0066L61.9771 28.6218Z" fill="#333333"/>
<path fill-rule="evenodd" clip-rule="evenodd" d="M80.1398 17.4526L99.2903 19.0482L98.698 25.4309L93.7628 24.8321L92.5775 38.1957L83.4965 37.3974L84.6812 24.035L79.5474 23.8354L80.1398 17.4526ZM29.5985 43.5805L29.7959 40.7886H30.3883C31.7705 40.9876 33.3495 40.9876 33.3495 42.3842C33.1514 43.7795 31.7699 43.7795 30.3883 43.5805H29.5985ZM20.1219 54.9488L32.5597 55.9462C36.903 56.3454 41.8388 55.348 42.0362 51.3586C42.2337 48.9659 40.654 47.1713 38.0878 46.373V46.174C40.2591 45.7748 41.4433 44.1793 41.6413 42.3848C42.0362 37.9973 37.1005 36.6008 32.3622 36.2016L21.701 35.4039L20.1219 54.9488ZM29.2036 47.7695H29.9934C31.573 47.9685 33.9418 47.9685 33.745 49.7642C33.5469 51.3586 31.3756 51.1596 29.9934 50.9606H29.0061L29.2036 47.7695ZM67.7021 39.1931L66.7148 50.7604C66.3199 56.3453 61.3848 58.5397 54.4745 57.9409C47.3668 57.5417 43.0235 54.5496 43.4184 48.7663L44.4056 37.1978L53.4873 37.9961L52.6975 48.9653C52.5 50.3618 52.5 51.7572 54.8694 51.9573C57.4357 52.1563 57.6332 50.7598 57.6332 49.3645L58.6204 38.3941L67.7021 39.1931Z" fill="#333333"/>
<path fill-rule="evenodd" clip-rule="evenodd" d="M77.9684 39.99L80.3372 45.3748H80.7321C80.9296 44.7766 81.3245 44.1785 81.7194 43.5803L83.6933 40.5882L93.9584 41.3866L84.4819 51.7575L83.6933 60.135L74.8079 59.3378L75.5977 50.9604L67.7014 39.1929L77.9684 39.99Z" fill="#333333"/>
</g>
<defs>
<clipPath id="clip0_37_582">
<rect width="105" height="72" fill="white" transform="translate(0 0.5)"/>
</clipPath>
</defs>
</svg>
