<svg width="105" height="73" viewBox="0 0 105 73" fill="none" xmlns="http://www.w3.org/2000/svg">
<g clip-path="url(#clip0_37_1484)">
<path fill-rule="evenodd" clip-rule="evenodd" d="M34.1393 1.54276L22.6888 0.547119V0.746367L1.56375 19.2632L-0.0158691 44.3499L17.3582 65.6557L23.8729 66.2528L99.6852 72.4241L105.015 7.31616L34.1393 1.54276Z" fill="#F1E04A" stroke="#272727" stroke-width="14.3618" stroke-miterlimit="2.613"/>
<path fill-rule="evenodd" clip-rule="evenodd" d="M10.2505 32.6033C10.2505 34.1967 8.86828 35.5902 7.28926 35.5902C5.51219 35.5902 4.13062 34.1967 4.13062 32.6033C4.13062 30.8113 5.51278 29.4177 7.28926 29.4177C8.86888 29.4177 10.2505 30.8113 10.2505 32.6033Z" fill="white" stroke="#272727" stroke-width="7.1783" stroke-miterlimit="2.613"/>
<path fill-rule="evenodd" clip-rule="evenodd" d="M27.2295 20.6568L27.4264 17.8692L28.2162 18.0684C29.4003 18.0684 31.1774 18.0684 30.9799 19.6612C30.9799 20.8561 29.4003 20.8561 28.0187 20.8561L27.2295 20.6568ZM17.9504 32.0062L30.1913 33.0018C34.7321 33.3997 39.4698 32.4041 39.8647 28.4221C40.0622 26.0329 38.4825 24.4401 35.7188 23.4445V23.2453C38.0882 22.8474 39.2723 21.2546 39.4698 19.6612C39.8647 15.0821 34.929 13.8872 29.9933 13.4893L19.5295 12.4937L17.9504 32.0062ZM27.0315 24.838H27.8213C29.4009 25.0373 31.5723 25.2365 31.5723 26.8293C31.3748 28.4221 29.2034 28.2229 27.6238 28.2229L26.6372 28.0242L27.0315 24.838ZM42.2335 14.4849L59.0158 15.8785L58.6203 21.0553L50.9208 20.4582L50.7234 22.4489L57.8305 23.0466L57.4356 28.0242L50.3285 27.4265L50.1304 29.4177L58.2254 30.0149L57.8305 35.391L40.6545 33.7982L42.2335 14.4849ZM61.977 28.6214L62.3719 29.0198C63.9509 30.0155 65.7268 31.0111 67.8994 31.2104C68.688 31.2104 70.2682 31.2104 70.2682 30.2147C70.4657 29.4183 69.281 29.2191 68.2943 29.0198L66.5166 28.6214C62.9631 27.825 60.1987 25.8337 60.3962 22.8474C60.7911 18.2676 66.5166 16.0777 71.8479 16.6749C74.8078 16.8741 77.3753 17.6705 79.7442 18.8654L76.783 23.6437C75.4002 22.8474 73.6243 22.051 71.6504 21.8517C70.8606 21.6525 69.6753 21.8517 69.6753 22.6481C69.4778 23.4445 70.6625 23.6437 71.4529 23.843L73.4269 24.2409C77.1785 25.2371 79.9422 27.2278 79.5473 30.4134C79.1524 34.9925 73.6249 36.9844 68.0968 36.386C64.9382 36.1874 61.3841 35.1917 58.6203 33.9969L61.977 28.6214Z" fill="#272727"/>
<path fill-rule="evenodd" clip-rule="evenodd" d="M80.1397 17.4712L99.2902 19.064L98.6978 25.4357L93.7627 24.838L92.5774 38.1786L83.4964 37.3816L84.6811 24.0422L79.5473 23.8429L80.1397 17.4712ZM29.5984 43.5541L29.7958 40.767H30.3882C31.7703 40.9657 33.3494 40.9657 33.3494 42.3598C33.1513 43.7527 31.7697 43.7527 30.3882 43.5541H29.5984ZM20.1218 54.9028L32.5595 55.8985C36.9029 56.297 41.8386 55.3013 42.0361 51.3188C42.2335 48.9302 40.6539 47.1388 38.0876 46.3418V46.1431C40.259 45.7446 41.4431 44.1518 41.6412 42.3604C42.0361 37.9805 37.1004 36.5864 32.3621 36.1879L21.7008 35.3915L20.1218 54.9028ZM29.2035 47.7359H29.9933C31.5729 47.9346 33.9417 47.9346 33.7449 49.7272C33.5468 51.3188 31.3754 51.1201 29.9933 50.9215H29.006L29.2035 47.7359ZM67.7019 39.1742L66.7147 50.7216C66.3198 56.297 61.3847 58.4875 54.4744 57.8898C47.3667 57.4913 43.0233 54.5043 43.4182 48.7309L44.4055 37.1824L53.4871 37.9793L52.6973 48.9296C52.4999 50.3237 52.4999 51.7167 54.8693 51.9165C57.4356 52.1152 57.633 50.721 57.633 49.3281L58.6203 38.3766L67.7019 39.1742Z" fill="#272727"/>
<path fill-rule="evenodd" clip-rule="evenodd" d="M77.9684 39.9701L80.3372 45.3456H80.7321C80.9296 44.7485 81.3245 44.1513 81.7194 43.5542L83.6933 40.5673L93.9584 41.3642L84.4819 51.7173L83.6933 60.0804L74.8079 59.2846L75.5977 50.9216L67.7014 39.1743L77.9684 39.9701Z" fill="#272727"/>
</g>
<defs>
<clipPath id="clip0_37_1484">
<rect width="105" height="71.8761" fill="white" transform="translate(0 0.547852)"/>
</clipPath>
</defs>
</svg>
