<svg width="206" height="81" viewBox="0 0 206 81" fill="none" xmlns="http://www.w3.org/2000/svg">
<g clip-path="url(#clip0_37_1591)">
<path fill-rule="evenodd" clip-rule="evenodd" d="M92.4836 43.5834C95.0443 44.5791 97.6049 45.6464 100.095 46.8548C92.1202 50.0529 84.4131 53.8817 77.0472 58.3048C74.5571 57.0238 71.9965 55.7449 69.4359 54.606C76.8335 50.3399 84.5164 46.6422 92.4836 43.5834ZM82.9508 40.2415C74.7056 42.8764 66.7267 46.281 59.1196 50.4104C61.5381 51.3356 63.9566 52.2598 66.3046 53.2555C73.642 48.9114 81.385 45.2913 89.4239 42.4466C87.2897 41.6635 85.1566 40.8814 82.9508 40.2415Z" fill="#2267AD"/>
<path fill-rule="evenodd" clip-rule="evenodd" d="M142.918 55.8871C143.061 56.3134 143.418 56.4555 143.772 56.4555C143.985 56.4555 144.2 56.4555 144.342 56.3134C144.431 56.216 144.481 56.0895 144.484 55.9577C144.484 55.6735 144.271 55.5314 143.985 55.5314L143.488 55.3893C143.346 55.3177 143.131 55.3177 142.989 55.1756C142.847 55.0335 142.776 54.8209 142.776 54.6072C142.776 54.0388 143.275 53.8262 143.772 53.8262C144.2 53.8262 144.626 54.0388 144.768 54.5367L144.414 54.6072C144.414 54.322 144.057 54.1093 143.702 54.1093C143.489 54.1093 143.132 54.2514 143.132 54.5356C143.132 54.8914 143.347 54.9619 143.631 55.0335L144.057 55.104C144.271 55.1745 144.484 55.2461 144.626 55.3166C144.768 55.5303 144.839 55.6735 144.839 55.9577C144.839 56.1703 144.768 56.4555 144.555 56.5976C144.342 56.7408 144.056 56.8113 143.772 56.8113C143.203 56.8113 142.848 56.526 142.635 55.9577L142.918 55.8871ZM145.693 56.7408H145.41V53.8967H145.905L146.833 56.1713L147.613 53.8967H148.183V56.7408H147.828V54.2514L146.901 56.7408H146.617L145.693 54.2514V56.7408ZM109.77 43.2288C103.238 40.1081 96.4853 37.4696 89.5674 35.3345C87.0773 36.045 84.6588 36.827 82.3109 37.6102C89.4319 39.7492 96.3768 42.4356 103.083 45.6455C105.289 44.7919 107.493 44.0109 109.77 43.2288ZM120.37 40.0995C113.753 37.1839 106.853 34.7661 99.8099 32.8462C97.5336 33.2725 95.3288 33.7704 93.1241 34.3387C100.095 36.4018 106.923 38.9617 113.469 42.091C115.744 41.3794 118.092 40.669 120.37 40.0995ZM137.441 45.7887C120.723 51.4074 105.073 59.4428 90.9183 69.4707C94.4749 71.6748 97.8894 73.9505 101.232 76.4387C114.701 65.7693 129.563 56.9883 145.408 50.339C142.808 48.7269 140.151 47.2092 137.441 45.7887ZM125.917 40.3837C108.559 44.9351 92.2702 52.3315 77.5444 62.1447C80.8168 63.7804 84.0892 65.4877 87.29 67.336C101.731 57.3797 117.737 49.5569 134.809 44.4361C131.894 43.0152 128.976 41.5931 125.917 40.3837Z" fill="#CD2E29"/>
<path fill-rule="evenodd" clip-rule="evenodd" d="M78.1845 6.46219C82.3813 6.46219 84.5155 9.59151 84.5155 13.7871C84.5155 18.1258 82.4518 21.1836 78.1845 21.1836C73.8455 21.1836 71.8534 18.1258 71.8534 13.7871C71.8534 9.59151 73.9876 6.46219 78.1845 6.46219ZM78.1845 18.3384C79.3226 18.3384 79.8206 17.3427 79.8206 13.7871C79.8206 10.5157 79.4648 9.30732 78.1845 9.30732C76.9041 9.30732 76.5483 10.5157 76.5483 13.7871C76.5483 17.3427 77.0463 18.3384 78.1845 18.3384ZM87.4331 10.0178H85.5831V6.88848H87.4331V5.32436C87.4331 1.83926 89.1409 0.559326 92.1279 0.559326C92.9818 0.559326 93.6925 0.701419 94.4042 0.773001V4.2581C94.1281 4.17086 93.841 4.12301 93.5514 4.116C92.3427 4.116 91.9152 4.61387 91.9152 5.46645V6.88955H94.4042V10.0189H91.9152V20.8994H87.4331V10.0178ZM34.5779 10.7999C34.5779 9.94622 34.2221 9.37784 33.4408 9.37784C32.3027 9.37784 31.9468 10.3736 31.9468 11.2262L27.9626 10.3725C28.4596 7.67054 31.0213 6.5327 33.5819 6.5327C36.2847 6.5327 39.1306 7.66948 39.1306 10.7988V18.6216C39.1306 20.1857 39.3444 20.6836 39.5571 20.8972H34.8622C34.7917 20.471 34.7201 19.8299 34.7201 19.6173C33.9378 20.3994 32.5859 21.1825 31.3056 21.1825C29.0292 21.1825 27.3214 19.6173 27.393 17.0574C27.4635 13.4302 31.5898 12.2924 34.5779 11.9377V10.7999ZM34.5779 14.1418C33.0134 14.2839 31.8036 14.9239 31.8036 16.7017C31.8036 17.6974 32.3016 18.1953 33.1555 18.1953C33.6535 18.1953 34.2231 17.8395 34.5779 17.3416V14.1418ZM46.3156 10.8704V20.8983H41.7629V6.88848H46.1734L46.245 8.31158C47.2411 7.31584 48.4498 6.53377 50.2281 6.53377C52.2202 6.53377 53.3584 7.88422 53.3584 9.80519V20.8994H48.8057V11.2272C48.8057 10.4452 48.5203 10.0189 47.738 10.0189C47.2411 10.0178 46.742 10.302 46.3156 10.8704ZM56.1327 0.985609H60.6854V11.0841H60.756L64.0999 6.88848H68.581L64.8117 11.1556L68.581 20.8983H63.8862L61.6815 14.7818H61.6099L60.6854 15.8491V20.8983H56.1327V0.985609ZM22.556 10.5157C24.6903 11.2272 26.2548 13.005 26.2548 15.566C26.2548 18.9784 23.5521 20.8994 19.7101 20.8994H12.0977V0.985609H19.9227C23.4794 0.985609 25.7558 3.11919 25.7558 5.82115C25.7558 8.45261 23.9774 9.80412 22.555 10.3725V10.5157H22.556ZM16.9368 17.2006H18.7856C19.9238 17.2006 21.3463 16.7027 21.3463 14.7112C21.3463 13.2187 20.4218 12.223 18.7856 12.223H16.9368V17.2006ZM16.9368 8.87889H18.6435C20.4218 8.87889 21.1336 7.88315 21.1336 6.74531C21.1336 4.82541 19.8533 4.54122 18.7151 4.54122H16.9368V8.87889ZM186.242 10.7999C186.242 9.94622 185.814 9.37784 185.033 9.37784C183.964 9.37784 183.609 10.3736 183.539 11.2262L179.627 10.3725C180.124 7.67054 182.685 6.5327 185.247 6.5327C187.949 6.5327 190.794 7.66948 190.794 10.7988V18.6216C190.794 20.1857 191.007 20.6836 191.151 20.8972H186.526C186.455 20.471 186.384 19.8299 186.384 19.6173C185.601 20.3994 184.251 21.1825 182.898 21.1825C180.694 21.1825 178.915 19.6173 178.986 17.0574C179.128 13.4302 183.255 12.2924 186.242 11.9377V10.7999ZM186.242 14.1418C184.676 14.2839 183.467 14.9239 183.467 16.7017C183.467 17.6974 183.964 18.1953 184.746 18.1953C185.316 18.1953 185.813 17.8395 186.24 17.3416V14.1418H186.242ZM139.648 14.8533C139.575 16.0617 139.932 18.1953 141.781 18.1953C142.848 18.1953 143.772 17.3416 143.985 16.2754L147.045 17.3427C146.832 17.9827 145.479 21.1836 141.423 21.1836C137.083 21.1836 135.092 17.6985 135.092 13.7871C135.092 9.80412 137.227 6.46219 141.352 6.46219C145.692 6.46219 147.256 10.2315 147.256 13.9292V14.8533H139.648ZM143.06 12.1503C143.06 10.8704 142.918 9.30625 141.353 9.30625C140.073 9.30625 139.574 10.8704 139.647 12.1503H143.06ZM159.423 6.88848H163.976V20.8983H159.423V6.88848ZM159.423 0.985609H163.976V5.04016H159.423V0.985609ZM174.005 12.0798C174.005 11.5114 174.005 10.7999 173.792 10.302C173.58 9.73254 173.223 9.30625 172.513 9.30625C171.019 9.30625 170.805 11.1546 170.805 13.9997C170.805 17.129 171.302 18.1953 172.513 18.1953C174.076 18.1953 174.219 16.5596 174.219 15.4933L177.775 15.9912C177.42 19.4047 175.429 21.1825 172.156 21.1825C168.102 21.1825 165.967 17.6269 165.967 14.1418C165.967 10.302 168.102 6.46219 172.369 6.46219C177.136 6.46219 177.918 10.6578 177.918 12.0798H174.005ZM102.3 0.985609H108.916L113.114 20.8983H108.276L107.494 16.8448H102.869L101.945 20.8983H97.6061L102.3 0.985609ZM103.51 13.3597H106.781L105.36 5.25277H105.215L103.51 13.3597ZM149.107 6.88848H153.518V8.73787H153.588C154.513 7.24426 156.22 6.53377 157.999 6.53377V11.0851C157.429 10.8714 156.932 10.7294 156.15 10.7294C154.941 10.7294 154.159 11.1556 153.66 11.7967V20.8994H149.107V6.88848ZM126.13 10.8704V20.8983H121.649V11.2977C121.649 10.5157 121.436 10.0178 120.582 10.0178C120.155 10.0178 119.445 10.3736 119.088 10.8704V20.8983H114.607V6.88848H119.018L119.088 8.31158C120.084 7.38742 121.508 6.53377 123.144 6.53377C124.565 6.53377 125.49 7.31584 125.918 8.38209H125.989C126.771 7.52845 128.122 6.53377 129.974 6.53377C131.895 6.53377 133.174 7.74213 133.174 9.73361V20.8994H128.693V11.2988C128.693 10.5167 128.48 10.0189 127.626 10.0189C127.055 10.0178 126.416 10.5157 126.13 10.8704ZM193 19.2626C193 18.1953 193.852 17.3427 194.991 17.3427C195.244 17.3417 195.494 17.3907 195.727 17.4868C195.961 17.583 196.173 17.7243 196.351 17.9028C196.53 18.0813 196.671 18.2933 196.767 18.5267C196.864 18.7601 196.913 19.0102 196.912 19.2626C196.913 19.515 196.864 19.7651 196.767 19.9985C196.671 20.2319 196.53 20.4439 196.351 20.6224C196.173 20.8009 195.961 20.9422 195.727 21.0384C195.494 21.1345 195.244 21.1835 194.991 21.1825C193.852 21.1836 193 20.3289 193 19.2626ZM193.355 19.2626C193.355 20.1152 194.067 20.7551 194.991 20.7551C195.845 20.7551 196.557 20.1152 196.557 19.2626C196.557 18.409 195.845 17.6974 194.991 17.6974C194.067 17.6974 193.355 18.409 193.355 19.2626Z" fill="#2267AD"/>
<path fill-rule="evenodd" clip-rule="evenodd" d="M195.915 20.3289H195.561L194.919 19.3332H194.562V20.3289H194.208V18.1953H195.204C195.346 18.1953 195.561 18.1953 195.703 18.2658C195.915 18.4079 195.987 18.55 195.987 18.7637C195.987 19.19 195.632 19.3332 195.275 19.3332L195.915 20.3289ZM194.92 19.049C195.205 19.049 195.632 19.1195 195.632 18.7637C195.632 18.4795 195.417 18.4079 195.133 18.4079H194.563V19.0479L194.92 19.049Z" fill="#2267AD"/>
</g>
<defs>
<clipPath id="clip0_37_1591">
<rect width="206" height="79.9044" fill="white" transform="translate(0 0.547852)"/>
</clipPath>
</defs>
</svg>
