<svg width="206" height="81" viewBox="0 0 206 81" fill="none" xmlns="http://www.w3.org/2000/svg">
<g clip-path="url(#clip0_37_671)">
<path fill-rule="evenodd" clip-rule="evenodd" d="M92.4841 43.5871C95.0448 44.5841 97.6054 45.6527 100.095 46.8625C92.1206 50.0644 84.4136 53.8978 77.0477 58.3261C74.5576 57.0436 71.997 55.7632 69.4364 54.6229C76.834 50.3517 84.5169 46.6496 92.4841 43.5871ZM82.9512 40.2412C74.7061 42.8793 66.7272 46.288 59.1201 50.4223C61.5386 51.3487 63.9571 52.2739 66.305 53.2709C73.6425 48.9215 81.3855 45.2971 89.4244 42.449C87.2902 41.6649 85.1571 40.8819 82.9512 40.2412Z" fill="#828282"/>
<path fill-rule="evenodd" clip-rule="evenodd" d="M142.918 55.9054C143.061 56.3322 143.418 56.4745 143.772 56.4745C143.985 56.4745 144.2 56.4745 144.342 56.3323C144.431 56.2347 144.481 56.1081 144.484 55.976C144.484 55.6915 144.271 55.5492 143.985 55.5492L143.488 55.407C143.346 55.3353 143.131 55.3353 142.989 55.193C142.847 55.0508 142.776 54.8379 142.776 54.624C142.776 54.0549 143.275 53.8421 143.772 53.8421C144.2 53.8421 144.626 54.0549 144.768 54.5534L144.414 54.624C144.414 54.3384 144.057 54.1255 143.702 54.1255C143.489 54.1255 143.132 54.2678 143.132 54.5523C143.132 54.9085 143.347 54.9791 143.631 55.0508L144.057 55.1214C144.271 55.192 144.484 55.2637 144.626 55.3342C144.768 55.5482 144.839 55.6915 144.839 55.976C144.839 56.1889 144.768 56.4745 144.555 56.6168C144.342 56.7601 144.056 56.8307 143.772 56.8307C143.203 56.8307 142.848 56.5451 142.635 55.976L142.918 55.9054ZM145.693 56.7601H145.41V53.9127H145.905L146.833 56.19L147.613 53.9127H148.183V56.7601H147.828V54.2678L146.901 56.7601H146.617L145.693 54.2678V56.7601ZM109.77 43.232C103.238 40.1076 96.4853 37.4659 89.5674 35.3282C87.0773 36.0395 84.6588 36.8225 82.3109 37.6066C89.4319 39.7482 96.3768 42.4378 103.083 45.6516C105.289 44.7969 107.493 44.015 109.77 43.232ZM120.37 40.0989C113.753 37.1798 106.853 34.7591 99.8099 32.8369C97.5336 33.2637 95.3288 33.7622 93.1241 34.3312C100.095 36.3968 106.923 38.9597 113.469 42.0928C115.744 41.3804 118.092 40.669 120.37 40.0989ZM137.441 45.7949C120.723 51.4203 105.073 59.4653 90.9183 69.5052C94.4749 71.712 97.8894 73.9904 101.232 76.4816C114.701 65.7994 129.563 57.0079 145.409 50.3506C142.808 48.7367 140.151 47.2171 137.441 45.7949ZM125.917 40.3834C108.559 44.9402 92.2702 52.3456 77.5444 62.1705C80.8168 63.8082 84.0892 65.5175 87.29 67.3681C101.731 57.3998 117.737 49.5676 134.809 44.4407C131.894 43.018 128.976 41.5943 125.917 40.3834Z" fill="#828282"/>
<path fill-rule="evenodd" clip-rule="evenodd" d="M78.1847 6.4214C82.3815 6.4214 84.5157 9.55447 84.5157 13.7551C84.5157 18.099 82.452 21.1604 78.1847 21.1604C73.8457 21.1604 71.8537 18.099 71.8537 13.7551C71.8537 9.55447 73.9879 6.4214 78.1847 6.4214ZM78.1847 18.3119C79.3229 18.3119 79.8209 17.3149 79.8209 13.7551C79.8209 10.4797 79.465 9.26994 78.1847 9.26994C76.9044 9.26994 76.5485 10.4797 76.5485 13.7551C76.5485 17.3149 77.0465 18.3119 78.1847 18.3119ZM87.4333 9.98127H85.5834V6.8482H87.4333V5.28221C87.4333 1.79294 89.1411 0.511475 92.1281 0.511475C92.982 0.511475 93.6927 0.653738 94.4045 0.725406V4.21467C94.1283 4.12733 93.8412 4.07943 93.5517 4.07241C92.343 4.07241 91.9155 4.57087 91.9155 5.42447V6.84927H94.4045V9.98234H91.9155V20.8759H87.4333V9.98127ZM34.5782 10.7643C34.5782 9.90961 34.2223 9.34054 33.4411 9.34054C32.3029 9.34054 31.947 10.3375 31.947 11.1911L27.9629 10.3364C28.4598 7.6312 31.0215 6.492 33.5821 6.492C36.2849 6.492 39.1309 7.63014 39.1309 10.7632V18.5953C39.1309 20.1613 39.3446 20.6598 39.5573 20.8737H34.8625C34.7919 20.4469 34.7203 19.8051 34.7203 19.5923C33.938 20.3753 32.5861 21.1593 31.3058 21.1593C29.0294 21.1593 27.3217 19.5923 27.3933 17.0293C27.4638 13.3978 31.5901 12.2586 34.5782 11.9035V10.7643ZM34.5782 14.1102C33.0136 14.2525 31.8038 14.8932 31.8038 16.6731C31.8038 17.6701 32.3018 18.1685 33.1557 18.1685C33.6538 18.1685 34.2234 17.8123 34.5782 17.3139V14.1102ZM46.3158 10.8349V20.8748H41.7631V6.8482H46.1737L46.2453 8.27301C47.2413 7.27607 48.45 6.49307 50.2284 6.49307C52.2204 6.49307 53.3586 7.84514 53.3586 9.76841V20.8759H48.8059V11.1921C48.8059 10.4091 48.5206 9.98234 47.7383 9.98234C47.2413 9.98127 46.7422 10.2658 46.3158 10.8349ZM56.133 0.938268H60.6857V11.0488H60.7562L64.1002 6.8482H68.5813L64.8119 11.1205L68.5813 20.8748H63.8864L61.6817 14.7509H61.6101L60.6857 15.8195V20.8748H56.133V0.938268ZM22.5563 10.4797C24.6905 11.1921 26.2551 12.9721 26.2551 15.5361C26.2551 18.9526 23.5523 20.8759 19.7103 20.8759H12.0979V0.938268H19.923C23.4796 0.938268 25.756 3.0744 25.756 5.7796C25.756 8.4142 23.9777 9.76734 22.5552 10.3364V10.4797H22.5563ZM16.937 17.1727H18.7859C19.9241 17.1727 21.3465 16.6742 21.3465 14.6803C21.3465 13.186 20.4221 12.1891 18.7859 12.1891H16.937V17.1727ZM16.937 8.841H18.6437C20.4221 8.841 21.1338 7.84406 21.1338 6.70486C21.1338 4.78267 19.8535 4.49814 18.7153 4.49814H16.937V8.841ZM186.242 10.7643C186.242 9.90961 185.814 9.34054 185.033 9.34054C183.964 9.34054 183.61 10.3375 183.539 11.1911L179.628 10.3364C180.125 7.6312 182.685 6.492 185.247 6.492C187.95 6.492 190.795 7.63014 190.795 10.7632V18.5953C190.795 20.1613 191.007 20.6598 191.151 20.8737H186.526C186.456 20.4469 186.384 19.8051 186.384 19.5923C185.602 20.3753 184.251 21.1593 182.898 21.1593C180.694 21.1593 178.915 19.5923 178.986 17.0293C179.128 13.3978 183.255 12.2586 186.242 11.9035V10.7643ZM186.242 14.1102C184.676 14.2525 183.467 14.8932 183.467 16.6731C183.467 17.6701 183.964 18.1685 184.747 18.1685C185.316 18.1685 185.813 17.8123 186.241 17.3139V14.1102H186.242ZM139.648 14.8226C139.576 16.0324 139.933 18.1685 141.781 18.1685C142.848 18.1685 143.772 17.3139 143.985 16.2463L147.045 17.3149C146.832 17.9557 145.479 21.1604 141.423 21.1604C137.083 21.1604 135.092 17.6711 135.092 13.7551C135.092 9.76734 137.228 6.4214 141.352 6.4214C145.692 6.4214 147.256 10.1952 147.256 13.8973V14.8226H139.648ZM143.061 12.1163C143.061 10.8349 142.919 9.26887 141.353 9.26887C140.074 9.26887 139.575 10.8349 139.647 12.1163H143.061ZM159.424 6.8482H163.976V20.8748H159.424V6.8482ZM159.424 0.938268H163.976V4.99768H159.424V0.938268ZM174.005 12.0457C174.005 11.4767 174.005 10.7643 173.792 10.2658C173.58 9.69567 173.223 9.26887 172.513 9.26887C171.019 9.26887 170.805 11.1194 170.805 13.9679C170.805 17.101 171.302 18.1685 172.513 18.1685C174.077 18.1685 174.219 16.5309 174.219 15.4633L177.776 15.9618C177.421 19.3794 175.43 21.1593 172.156 21.1593C168.103 21.1593 165.967 17.5995 165.967 14.1102C165.967 10.2658 168.103 6.4214 172.369 6.4214C177.136 6.4214 177.919 10.622 177.919 12.0457H174.005ZM102.3 0.938268H108.916L113.114 20.8748H108.276L107.494 16.8165H102.87L101.945 20.8748H97.6063L102.3 0.938268ZM103.51 13.3272H106.781L105.36 5.21054H105.216L103.51 13.3272ZM149.107 6.8482H153.518V8.69981H153.589C154.513 7.20441 156.221 6.49307 157.999 6.49307V11.0499C157.429 10.8359 156.932 10.6937 156.15 10.6937C154.941 10.6937 154.159 11.1205 153.66 11.7623V20.8759H149.107V6.8482ZM126.13 10.8349V20.8748H121.649V11.2627C121.649 10.4797 121.436 9.98127 120.583 9.98127C120.155 9.98127 119.445 10.3375 119.088 10.8349V20.8748H114.607V6.8482H119.018L119.088 8.27301C120.084 7.34774 121.508 6.49307 123.144 6.49307C124.566 6.49307 125.49 7.27607 125.919 8.34361H125.989C126.771 7.48894 128.122 6.49307 129.974 6.49307C131.895 6.49307 133.174 7.70287 133.174 9.69674V20.8759H128.693V11.2638C128.693 10.4808 128.48 9.98234 127.626 9.98234C127.056 9.98127 126.417 10.4797 126.13 10.8349ZM193 19.2371C193 18.1685 193.852 17.3149 194.991 17.3149C195.244 17.314 195.494 17.363 195.727 17.4592C195.961 17.5555 196.173 17.697 196.352 17.8757C196.53 18.0544 196.671 18.2667 196.768 18.5004C196.864 18.734 196.913 18.9844 196.912 19.2371C196.913 19.4898 196.864 19.7402 196.768 19.9739C196.671 20.2076 196.53 20.4199 196.352 20.5985C196.173 20.7772 195.961 20.9188 195.727 21.015C195.494 21.1113 195.244 21.1603 194.991 21.1593C193.852 21.1604 193 20.3047 193 19.2371ZM193.355 19.2371C193.355 20.0907 194.067 20.7315 194.991 20.7315C195.845 20.7315 196.557 20.0907 196.557 19.2371C196.557 18.3825 195.845 17.6701 194.991 17.6701C194.067 17.6701 193.355 18.3825 193.355 19.2371Z" fill="#828282"/>
<path fill-rule="evenodd" clip-rule="evenodd" d="M195.916 20.3046H195.561L194.92 19.3077H194.563V20.3046H194.208V18.1685H195.204C195.346 18.1685 195.561 18.1685 195.703 18.2391C195.916 18.3813 195.987 18.5236 195.987 18.7375C195.987 19.1643 195.633 19.3077 195.276 19.3077L195.916 20.3046ZM194.921 19.0231C195.205 19.0231 195.633 19.0937 195.633 18.7375C195.633 18.453 195.418 18.3813 195.134 18.3813H194.564V19.0221L194.921 19.0231Z" fill="#828282"/>
</g>
<defs>
<clipPath id="clip0_37_671">
<rect width="206" height="80" fill="white" transform="translate(0 0.5)"/>
</clipPath>
</defs>
</svg>
