<svg width="149" height="75" viewBox="0 0 149 75" fill="none" xmlns="http://www.w3.org/2000/svg">
<path d="M107.244 4.0258C103.732 1.79266 99.5576 0.984355 95.1274 1.28197C82.0288 2.15282 66.6469 12.6478 59.2086 24.4908C49.2532 40.3443 52.4487 60.348 66.3471 69.1719C70.4208 71.7596 74.9617 73.0881 79.5977 73.2895C90.7717 73.7687 102.49 67.6429 109.528 56.4396C119.48 40.5899 121.141 12.8438 107.244 4.0258Z" fill="#828282"/>
<path d="M69.8237 1.45229C69.2783 1.45416 68.728 1.47395 68.1737 1.5109C55.0722 2.38243 39.6916 12.8792 32.257 24.7204C22.2992 40.572 25.4958 60.5744 39.3938 69.4042C43.4674 71.9884 48.0087 73.319 52.6421 73.515C57.2886 73.7165 61.9717 72.9014 66.4304 70.9287C44.2959 59.3044 49.5276 34.3341 56.3147 24.4414C61.5633 16.0812 71.0601 8.22626 80.4639 4.36294C80.4078 4.32638 80.3521 4.28929 80.2955 4.25335C77.221 2.30116 73.6416 1.43925 69.8237 1.45229Z" fill="#4F4F4F"/>
<path d="M44.2099 1.67437C30.752 1.64762 14.2857 12.5591 6.51203 24.9432C-3.44361 40.7966 -0.249949 60.7971 13.6503 69.6256C21.6475 74.7034 31.4474 74.9707 40.2237 71.2592C39.0573 70.7396 37.9176 70.13 36.812 69.4283C22.9138 60.599 19.7234 40.5993 29.6737 24.7458C35.0351 16.2068 44.5281 8.36872 54.3182 4.33367C51.3313 2.5045 47.8828 1.68167 44.2099 1.67437Z" fill="#828282"/>
<path d="M60.8469 29.7873L60.3052 31.4554C60.876 30.7901 61.4898 30.2861 62.142 29.9497C62.7945 29.6163 63.4969 29.4444 64.25 29.4396C65.1821 29.4329 65.8882 29.6458 66.3672 30.0861C66.8501 30.5291 67.0843 31.0889 67.0784 31.7661C67.0718 32.4421 66.8635 33.5711 66.4553 35.1539L63.1918 47.8534L57.7142 47.8995L60.9438 35.3431C61.2685 34.0974 61.4217 33.3367 61.4177 33.0642C61.4065 32.7912 61.2239 32.6556 60.8557 32.6596C60.4841 32.6655 60.2062 32.822 60.0227 33.137C59.8425 33.4503 59.5764 34.2925 59.2239 35.6586L56.0709 47.9125L50.5959 47.9602L55.2585 29.8343L60.8469 29.7873Z" fill="#4F4F4F"/>
<path d="M75.0179 36.1036L75.361 34.7702C75.605 33.8247 75.7089 33.2165 75.6768 32.944C75.646 32.6688 75.4827 32.5333 75.1854 32.5381C74.8033 32.5399 74.5395 32.6572 74.3933 32.8916C74.2436 33.1279 74.0358 33.7589 73.772 34.7797L73.4289 36.114L75.0179 36.1036ZM79.7373 38.9883L72.675 39.0476L71.6655 42.9686C71.4543 43.7904 71.3771 44.3191 71.4297 44.554C71.4837 44.7889 71.6758 44.9044 72.0066 44.903C72.4112 44.9003 72.7215 44.7365 72.9457 44.4259C73.1603 44.1083 73.3858 43.4989 73.6189 42.5967L74.2347 40.2018L79.4352 40.1575L79.0921 41.4962C78.805 42.6169 78.5118 43.4747 78.2179 44.0788C77.9233 44.6802 77.4326 45.3254 76.7423 46.0133C76.0541 46.696 75.2729 47.2161 74.3946 47.5651C73.5211 47.9123 72.4857 48.09 71.2917 48.0988C70.1428 48.1123 69.1723 47.9517 68.3712 47.6242C67.5702 47.2947 67.0013 46.8388 66.6628 46.2536C66.3237 45.6723 66.1483 45.0306 66.1374 44.3271C66.1272 43.6224 66.2992 42.5967 66.6447 41.2511L68.0063 35.9691C68.4122 34.3844 68.944 33.1368 69.6042 32.2172C70.2651 31.2987 71.1413 30.592 72.2287 30.098C73.3236 29.6045 74.4924 29.3517 75.7397 29.3396C77.2727 29.3261 78.4619 29.6121 79.3087 30.1858C80.1569 30.7652 80.6538 31.5371 80.8048 32.501C80.9559 33.4681 80.811 34.8274 80.3579 36.5866L79.7373 38.9883Z" fill="#4F4F4F"/>
<path d="M101.596 29.4377L94.7333 47.5795L88.8487 47.6324C89.0961 45.4182 89.474 42.4909 89.9743 38.8428C89.3695 40.4592 88.7263 42.0774 88.0428 43.6977L86.4654 47.6493L80.5835 47.7036L82.9305 29.5969L87.6061 29.5545C87.5391 30.0244 87.0525 33.4932 86.1353 39.9665C86.3977 39.2757 87.7073 35.7969 90.0652 29.5349L94.5262 29.4954L92.9802 39.9075C93.9507 36.8426 95.263 33.367 96.9115 29.4758L101.596 29.4377Z" fill="#4F4F4F"/>
<path d="M108.391 35.7792L108.735 34.4462C108.974 33.5016 109.082 32.8916 109.05 32.6191C109.019 32.3445 108.855 32.2083 108.558 32.211C108.174 32.215 107.912 32.3304 107.763 32.5667C107.615 32.803 107.411 33.4313 107.15 34.4575L106.802 35.7899L108.391 35.7792ZM113.108 38.6633L106.048 38.7245L105.038 42.6423C104.83 43.4666 104.749 43.9942 104.803 44.2286C104.857 44.4648 105.047 44.583 105.38 44.5781C105.782 44.5755 106.098 44.4179 106.318 44.1015C106.536 43.7834 106.761 43.1726 106.992 42.2718L107.61 39.8777L112.81 39.8347L112.463 41.1718C112.177 42.2901 111.889 43.1511 111.591 43.7539C111.293 44.3561 110.801 44.9997 110.115 45.6878C109.425 46.3738 108.644 46.8933 107.768 47.2416C106.893 47.5879 105.859 47.7664 104.662 47.7785C103.511 47.7882 102.546 47.6282 101.743 47.2974C100.943 46.9685 100.374 46.5148 100.037 45.9307C99.6978 45.3455 99.5214 44.7056 99.5119 44.0017C99.5023 43.2977 99.6711 42.2745 100.018 40.9253L101.376 35.645C101.782 34.0622 102.321 32.8111 102.978 31.8928C103.634 30.9732 104.513 30.2704 105.602 29.7731C106.69 29.2777 107.863 29.024 109.112 29.0146C110.643 29.0012 111.831 29.2831 112.68 29.8617C113.528 30.443 114.025 31.2095 114.178 32.1761C114.331 33.1453 114.182 34.5044 113.731 36.2598L113.108 38.6633Z" fill="#4F4F4F"/>
<path d="M123.066 34.0105C123.279 33.1825 123.364 32.6528 123.322 32.4259C123.282 32.199 123.102 32.0884 122.786 32.0884C122.464 32.0929 122.208 32.2245 122.013 32.4849C121.811 32.7481 121.616 33.2622 121.419 34.0247L119.852 40.1254C119.639 40.9351 119.554 41.4598 119.59 41.6995C119.626 41.9433 119.803 42.0612 120.122 42.0566C120.479 42.0547 120.75 41.9095 120.94 41.6168C121.125 41.3217 121.351 40.6578 121.616 39.63L123.066 34.0105ZM129.778 29.1557L126.185 43.126C125.693 45.0145 125.335 46.2375 125.106 46.7839C124.875 47.3369 124.419 47.9183 123.734 48.5438C123.057 49.1608 122.208 49.6379 121.192 49.9668C120.172 50.3 118.958 50.4742 117.549 50.4872C115.799 50.4997 114.476 50.2111 113.576 49.6258C112.675 49.0341 112.43 47.8627 112.846 46.1102L118.159 46.0629C117.947 46.8814 118.131 47.2881 118.724 47.2832C119.133 47.2806 119.446 47.1538 119.649 46.9007C119.848 46.6486 120.055 46.126 120.258 45.334L120.614 43.9473C120.032 44.3809 119.459 44.7098 118.881 44.9348C118.303 45.1568 117.73 45.2691 117.157 45.2771C116.173 45.2843 115.411 45.0891 114.877 44.6964C114.344 44.3017 114.042 43.7835 113.97 43.1324C113.894 42.4881 114.01 41.5618 114.323 40.3589L116.015 33.7858C116.461 32.0674 117.084 30.8311 117.898 30.0677C118.705 29.3106 119.74 28.9248 120.989 28.9127C121.671 28.9079 122.258 29.0443 122.75 29.3208C123.247 29.6001 123.639 30.0208 123.946 30.5814L124.681 29.2013L129.778 29.1557Z" fill="#4F4F4F"/>
<path d="M137.461 33.8878C137.672 33.0574 137.758 32.5319 137.718 32.3015C137.682 32.072 137.5 31.9628 137.185 31.9654C136.865 31.9681 136.608 32.0989 136.403 32.3628C136.215 32.6246 136.016 33.1369 135.817 33.8999L134.246 40.0005C134.039 40.8089 133.954 41.3322 133.989 41.5778C134.02 41.8182 134.2 41.9357 134.521 41.9331C134.874 41.9296 135.144 41.7873 135.33 41.4906C135.52 41.1967 135.745 40.5361 136.01 39.506L137.461 33.8878ZM144.172 29.0336L140.574 43.0036C140.091 44.8937 139.731 46.1102 139.5 46.6625C139.27 47.2108 138.819 47.7974 138.133 48.4163C137.451 49.0379 136.602 49.5131 135.587 49.8468C134.572 50.1776 133.357 50.3507 131.944 50.3588C130.197 50.3771 128.876 50.089 127.976 49.501C127.069 48.909 126.825 47.741 127.241 45.9852L132.553 45.9422C132.346 46.7597 132.527 47.1659 133.118 47.1611C133.533 47.1566 133.844 47.0296 134.043 46.778C134.246 46.5248 134.444 46.0025 134.653 45.2119L135.01 43.8225C134.436 44.2574 133.853 44.5849 133.276 44.8091C132.703 45.0328 132.13 45.1483 131.556 45.1528C130.567 45.1568 129.81 44.9689 129.276 44.5756C128.74 44.1809 128.442 43.656 128.37 43.0097C128.296 42.3613 128.415 41.4396 128.72 40.2368L130.409 33.6623C130.851 31.9453 131.484 30.7089 132.292 29.9464C133.108 29.1853 134.133 28.7973 135.388 28.7892C136.07 28.7839 136.657 28.9199 137.149 29.1987C137.64 29.4757 138.038 29.8954 138.34 30.4565L139.081 29.0765L144.172 29.0336Z" fill="#4F4F4F"/>
<path d="M146.512 30.392H146.848C146.995 30.392 147.119 30.304 147.116 30.1946C147.111 30.0545 147.014 29.9538 146.897 29.9538H146.512V30.392ZM146.205 31.2626V29.7051H146.888C147.026 29.7051 147.129 29.7194 147.201 29.7473C147.272 29.7754 147.329 29.8248 147.372 29.8956C147.414 29.9665 147.452 30.0627 147.452 30.1489C147.452 30.2599 147.43 30.3562 147.359 30.4322C147.289 30.5081 147.179 30.5627 147.032 30.5831C147.086 30.6094 147.099 30.6074 147.126 30.6326C147.186 30.6875 147.243 30.7566 147.295 30.8398L147.561 31.2626H147.147C147.029 31.0859 146.944 30.8892 146.817 30.7249C146.763 30.656 146.725 30.6486 146.647 30.6476H146.512V31.2626H146.205Z" fill="#4F4F4F"/>
<path d="M148.154 30.5088C148.154 31.2379 147.567 31.8276 146.842 31.8276C146.117 31.8276 145.53 31.2379 145.53 30.5088C145.53 29.78 146.117 29.1895 146.842 29.1895C147.567 29.1895 148.154 29.78 148.154 30.5088Z" fill="#4F4F4F" stroke="#828282" stroke-width="0.709207"/>
</svg>
