<svg width="149" height="75" viewBox="0 0 149 75" fill="none" xmlns="http://www.w3.org/2000/svg">
<path d="M107.244 4.05398C103.732 1.8334 99.5576 1.02964 95.1274 1.32558C82.0288 2.19153 66.6469 12.6274 59.2086 24.4039C49.2532 40.1682 52.4487 60.0595 66.3471 68.8337C70.4208 71.4069 74.9617 72.7279 79.5977 72.9281C90.7717 73.4047 102.49 67.3133 109.528 56.1731C119.48 40.4125 121.141 12.8224 107.244 4.05398Z" fill="url(#paint0_radial_37_1491)"/>
<path d="M69.8237 1.49502C69.2783 1.49687 68.728 1.51655 68.1737 1.55329C55.0722 2.41993 39.6916 12.8577 32.257 24.6323C22.2992 40.3947 25.4958 60.2846 39.3938 69.0648C43.4674 71.6344 48.0087 72.9576 52.6421 73.1525C57.2886 73.3528 61.9717 72.5423 66.4304 70.5807C44.2959 59.0218 49.5276 34.192 56.3147 24.3549C61.5633 16.0416 71.0601 8.23089 80.4639 4.38929C80.4078 4.35294 80.3521 4.31606 80.2955 4.28033C77.221 2.33911 73.6416 1.48205 69.8237 1.49502Z" fill="url(#paint1_radial_37_1491)"/>
<path d="M44.2099 1.71587C30.752 1.68927 14.2857 12.5394 6.51203 24.8538C-3.44361 40.6181 -0.249949 60.5061 13.6503 69.285C21.6475 74.3342 31.4473 74.6 40.2237 70.9094C39.0573 70.3927 37.9176 69.7866 36.812 69.0887C22.9138 60.3091 19.7234 40.4219 29.6737 24.6576C35.0351 16.1666 44.5281 8.37258 54.3181 4.36022C51.3313 2.54134 47.8828 1.72313 44.2099 1.71587Z" fill="url(#paint2_radial_37_1491)"/>
<path d="M60.8469 29.6703L60.3052 31.3291C60.876 30.6675 61.4898 30.1664 62.142 29.8319C62.7945 29.5003 63.4969 29.3294 64.25 29.3246C65.1821 29.3179 65.8882 29.5297 66.3672 29.9675C66.8501 30.408 67.0843 30.9647 67.0784 31.638C67.0718 32.3102 66.8635 33.4329 66.4553 35.0068L63.1918 47.6348L57.7142 47.6807L60.9438 35.1949C61.2685 33.9562 61.4217 33.1998 61.4177 32.9288C61.4065 32.6573 61.2239 32.5225 60.8557 32.5265C60.4841 32.5323 60.2062 32.688 60.0227 33.0012C59.8425 33.3127 59.5764 34.1502 59.2239 35.5086L56.0709 47.6936L50.5959 47.7411L55.2585 29.7171L60.8469 29.6703Z" fill="#002D6A"/>
<path d="M75.0179 35.9513L75.361 34.6254C75.605 33.6852 75.7089 33.0805 75.6768 32.8095C75.646 32.5358 75.4827 32.401 75.1854 32.4058C74.8033 32.4077 74.5395 32.5243 74.3933 32.7574C74.2436 32.9924 74.0358 33.6198 73.772 34.6348L73.4289 35.9617L75.0179 35.9513ZM79.7373 38.8197L72.675 38.8787L71.6655 42.7777C71.4543 43.5949 71.3771 44.1206 71.4297 44.3542C71.4837 44.5878 71.6758 44.7026 72.0066 44.7012C72.4112 44.6986 72.7215 44.5357 72.9457 44.2268C73.1603 43.911 73.3858 43.305 73.6189 42.4079L74.2347 40.0265L79.4352 39.9824L79.0921 41.3136C78.805 42.428 78.5118 43.2809 78.2179 43.8816C77.9233 44.4797 77.4326 45.1212 76.7423 45.8052C76.0541 46.4841 75.2729 47.0013 74.3946 47.3484C73.5211 47.6936 72.4857 47.8703 71.2917 47.8791C70.1428 47.8925 69.1723 47.7328 68.3712 47.4071C67.5702 47.0795 67.0013 46.6262 66.6628 46.0442C66.3237 45.4662 66.1483 44.8281 66.1374 44.1286C66.1272 43.4278 66.2992 42.4079 66.6447 41.0698L68.0063 35.8175C68.4122 34.2418 68.944 33.0012 69.6042 32.0868C70.2651 31.1735 71.1413 30.4707 72.2287 29.9795C73.3236 29.4888 74.4924 29.2373 75.7397 29.2253C77.2727 29.2119 78.4619 29.4963 79.3087 30.0668C80.1569 30.643 80.6538 31.4105 80.8048 32.369C80.9559 33.3306 80.811 34.6823 80.3579 36.4316L79.7373 38.8197Z" fill="#002D6A"/>
<path d="M101.596 29.3228L94.733 47.3625L88.8484 47.4151C89.0958 45.2133 89.4738 42.3025 89.9741 38.675C89.3692 40.2822 88.7261 41.8913 88.0426 43.5025L86.4652 47.4319L80.5833 47.4859L82.9303 29.481L87.6059 29.4389C87.5389 29.9061 87.0523 33.3554 86.135 39.7923C86.3975 39.1053 87.707 35.6461 90.065 29.4194L94.526 29.3801L92.98 39.7336C93.9505 36.686 95.2627 33.2299 96.9113 29.3606L101.596 29.3228Z" fill="#002D6A"/>
<path d="M108.391 35.6286L108.735 34.3031C108.974 33.3638 109.082 32.7572 109.05 32.4863C109.019 32.2132 108.855 32.0778 108.558 32.0805C108.174 32.0845 107.912 32.1992 107.763 32.4342C107.615 32.6691 107.411 33.2939 107.15 34.3143L106.802 35.6393L108.391 35.6286ZM113.108 38.4965L106.048 38.5574L105.038 42.4531C104.83 43.2728 104.749 43.7974 104.803 44.0305C104.857 44.2654 105.047 44.3828 105.38 44.3781C105.782 44.3754 106.098 44.2187 106.318 43.9041C106.536 43.5878 106.761 42.9804 106.992 42.0847L107.61 39.704L112.81 39.6613L112.463 40.9909C112.177 42.1029 111.889 42.9591 111.591 43.5585C111.293 44.1572 110.801 44.7972 110.115 45.4815C109.425 46.1636 108.644 46.6802 107.768 47.0265C106.893 47.3709 105.859 47.5484 104.662 47.5604C103.511 47.5701 102.546 47.4109 101.743 47.082C100.943 46.755 100.374 46.3038 100.037 45.7231C99.6978 45.1411 99.5214 44.5048 99.5119 43.8048C99.5023 43.1048 99.6711 42.0874 100.018 40.7458L101.376 35.4951C101.782 33.9213 102.321 32.6772 102.978 31.7641C103.634 30.8497 104.513 30.1508 105.602 29.6563C106.69 29.1637 107.863 28.9114 109.112 28.9021C110.643 28.8887 111.831 29.169 112.68 29.7444C113.528 30.3224 114.025 31.0846 114.178 32.0457C114.331 33.0096 114.182 34.361 113.731 36.1065L113.108 38.4965Z" fill="#002D6A"/>
<path d="M123.066 33.8698C123.279 33.0464 123.364 32.5197 123.322 32.2941C123.282 32.0684 123.102 31.9585 122.786 31.9585C122.464 31.963 122.208 32.0938 122.013 32.3528C121.811 32.6145 121.616 33.1257 121.419 33.8839L119.852 39.9502C119.639 40.7554 119.554 41.2771 119.59 41.5155C119.626 41.7579 119.803 41.8752 120.122 41.8706C120.479 41.8687 120.75 41.7243 120.94 41.4333C121.125 41.1399 121.351 40.4797 121.616 39.4577L123.066 33.8698ZM129.778 29.0423L126.185 42.934C125.693 44.8119 125.335 46.028 125.106 46.5713C124.875 47.1212 124.419 47.6993 123.734 48.3213C123.057 48.9349 122.208 49.4093 121.192 49.7363C120.172 50.0677 118.958 50.2409 117.549 50.2538C115.799 50.2663 114.476 49.9793 113.576 49.3973C112.675 48.8089 112.43 47.644 112.846 45.9015L118.159 45.8544C117.947 46.6682 118.131 47.0727 118.724 47.0679C119.133 47.0652 119.446 46.9392 119.649 46.6874C119.848 46.4368 120.055 45.9172 120.258 45.1296L120.614 43.7507C120.032 44.1819 119.459 44.5089 118.881 44.7326C118.303 44.9534 117.73 45.065 117.157 45.073C116.173 45.0802 115.411 44.8861 114.877 44.4956C114.344 44.1031 114.042 43.5878 113.97 42.9404C113.894 42.2997 114.01 41.3786 114.323 40.1825L116.015 33.6463C116.461 31.9376 117.084 30.7082 117.898 29.9492C118.705 29.1963 119.74 28.8127 120.989 28.8007C121.671 28.7959 122.258 28.9315 122.75 29.2064C123.247 29.4841 123.639 29.9025 123.946 30.4599L124.681 29.0876L129.778 29.0423Z" fill="#002D6A"/>
<path d="M137.461 33.7478C137.672 32.9221 137.758 32.3996 137.718 32.1705C137.682 31.9423 137.5 31.8336 137.185 31.8363C136.865 31.8389 136.608 31.9689 136.403 32.2314C136.215 32.4917 136.016 33.0011 135.817 33.7598L134.246 39.8261C134.039 40.63 133.954 41.1503 133.989 41.3946C134.02 41.6336 134.2 41.7505 134.521 41.7478C134.874 41.7444 135.144 41.6028 135.33 41.3079C135.52 41.0155 135.745 40.3587 136.01 39.3344L137.461 33.7478ZM144.172 28.9209L140.574 42.8123C140.091 44.6918 139.731 45.9015 139.5 46.4507C139.27 46.9959 138.819 47.5792 138.133 48.1946C137.451 48.8127 136.602 49.2852 135.587 49.617C134.572 49.946 133.357 50.1182 131.944 50.1262C130.197 50.1443 128.876 49.8579 127.976 49.2732C127.069 48.6845 126.825 47.5231 127.241 45.7771L132.553 45.7344C132.346 46.5473 132.527 46.9512 133.118 46.9465C133.533 46.9419 133.844 46.8156 134.043 46.5655C134.246 46.3137 134.444 45.7944 134.653 45.0082L135.01 43.6266C134.436 44.0591 133.853 44.3848 133.276 44.6077C132.703 44.8301 132.13 44.9449 131.556 44.9494C130.567 44.9535 129.81 44.7665 129.276 44.3755C128.74 43.983 128.442 43.4611 128.37 42.8184C128.296 42.1737 128.415 41.2571 128.72 40.0611L130.409 33.5235C130.851 31.8162 131.484 30.5868 132.292 29.8286C133.108 29.0717 134.133 28.6859 135.388 28.6779C136.07 28.6726 136.657 28.8079 137.149 29.085C137.64 29.3605 138.038 29.7779 138.34 30.3358L139.081 28.9636L144.172 28.9209Z" fill="#002D6A"/>
<path d="M146.512 30.2717H146.848C146.995 30.2717 147.119 30.1842 147.116 30.0754C147.111 29.9361 147.014 29.836 146.897 29.836H146.512V30.2717ZM146.205 31.1374V29.5886H146.888C147.026 29.5886 147.129 29.6028 147.201 29.6306C147.272 29.6585 147.329 29.7077 147.372 29.778C147.414 29.8486 147.452 29.9443 147.452 30.0299C147.452 30.1404 147.43 30.2361 147.359 30.3116C147.289 30.3871 147.179 30.4414 147.032 30.4617C147.086 30.4879 147.099 30.4859 147.126 30.5109C147.186 30.5655 147.243 30.6343 147.295 30.717L147.561 31.1374H147.147C147.029 30.9617 146.944 30.7661 146.817 30.6027C146.763 30.5342 146.725 30.5268 146.647 30.5258H146.512V31.1374H146.205Z" fill="#002D6A"/>
<path d="M148.154 30.3879C148.154 31.1128 147.567 31.6993 146.843 31.6993C146.117 31.6993 145.53 31.1128 145.53 30.3879C145.53 29.6632 146.117 29.0759 146.843 29.0759C147.567 29.0759 148.154 29.6632 148.154 30.3879Z" stroke="#002D6A" stroke-width="0.709207"/>
<defs>
<radialGradient id="paint0_radial_37_1491" cx="0" cy="0" r="1" gradientUnits="userSpaceOnUse" gradientTransform="translate(85.3846 37.1411) rotate(-0.492731) scale(33.9522 33.9522)">
<stop stop-color="white"/>
<stop offset="0.270833" stop-color="white"/>
<stop offset="0.649022" stop-color="white"/>
<stop offset="1" stop-color="#D6D7DD"/>
</radialGradient>
<radialGradient id="paint1_radial_37_1491" cx="0" cy="0" r="1" gradientUnits="userSpaceOnUse" gradientTransform="translate(58.4332 37.3671) rotate(-0.492731) scale(33.9524 33.9524)">
<stop stop-color="#F7ED1A"/>
<stop offset="0.19" stop-color="#F7ED1A"/>
<stop offset="1" stop-color="#EF7C29"/>
</radialGradient>
<radialGradient id="paint2_radial_37_1491" cx="0" cy="0" r="1" gradientUnits="userSpaceOnUse" gradientTransform="translate(32.6886 37.5946) rotate(-0.492731) scale(33.9556 33.9556)">
<stop stop-color="white"/>
<stop offset="0.270833" stop-color="white"/>
<stop offset="0.649022" stop-color="white"/>
<stop offset="1" stop-color="#D6D7DD"/>
</radialGradient>
</defs>
</svg>
