<svg width="268" height="65" viewBox="0 0 268 65" fill="none" xmlns="http://www.w3.org/2000/svg">
<g clip-path="url(#clip0_37_990)">
<path d="M235.374 21.9841C236.866 21.9841 238.094 21.2083 238.26 20.2061L239.733 3.54631C239.733 1.89966 237.804 0.547852 235.379 0.547852C232.956 0.547852 231.028 1.89965 231.028 3.5466L232.501 20.2061C232.663 21.208 233.891 21.9841 235.379 21.9841H235.374ZM226.37 27.1877C227.118 25.8971 227.062 24.4466 226.273 23.8022L212.58 14.1967C211.156 13.3721 209.021 14.3646 207.81 16.4657C206.594 18.5642 206.809 20.9078 208.229 21.7326L223.392 28.7924C224.34 29.1438 225.632 28.4676 226.375 27.1779L226.37 27.1877ZM244.386 27.1788C245.133 28.4685 246.419 29.145 247.368 28.7933L262.53 21.7335C263.959 20.909 264.162 18.5651 262.958 16.4666C261.74 14.3676 259.602 13.373 258.182 14.1976L244.488 23.8031C243.705 24.4466 243.646 25.8983 244.391 27.1886L244.386 27.1788ZM235.374 42.7947C236.866 42.7947 238.094 43.5639 238.26 44.567L239.733 61.2244C239.733 62.8761 237.804 64.2249 235.379 64.2249C232.956 64.2249 231.028 62.8761 231.028 61.2244L232.501 44.567C232.663 43.5639 233.891 42.7947 235.379 42.7947H235.374ZM244.386 37.5899C245.133 36.2966 246.419 35.6261 247.368 35.9816L262.53 43.0366C263.959 43.862 264.162 46.208 262.958 48.3083C261.74 50.4005 259.602 51.3977 258.182 50.5744L244.488 40.9777C243.705 40.3291 243.646 38.8766 244.391 37.5872H244.385M226.37 37.5881C227.118 38.8766 227.062 40.3291 226.273 40.9789L212.58 50.5753C211.156 51.3986 209.021 50.4014 207.81 48.3092C206.594 46.2089 206.809 43.8629 208.229 43.0375L223.392 35.9824C224.34 35.627 225.632 36.2975 226.375 37.591H226.37" fill="#FDBB30"/>
<path d="M148.999 40.9473C148.999 41.4586 148.954 41.9858 148.814 42.4489C148.233 44.3723 146.242 45.9987 143.75 45.9987C141.673 45.9987 140.023 44.8187 140.023 42.3265C140.023 38.5121 144.221 37.4587 149.001 37.4852L148.999 40.947V40.9473ZM156.495 34.3001C156.495 28.0104 153.808 22.4759 144.727 22.4759C140.065 22.4759 136.366 23.7852 134.346 24.9522L135.826 30.0087C137.671 28.8435 140.612 27.879 143.396 27.879C148.002 27.8662 148.757 30.4875 148.757 32.165V32.5622C138.716 32.5473 132.369 36.024 132.369 43.1064C132.369 47.4341 135.601 51.4874 141.221 51.4874C144.674 51.4874 147.566 50.1091 149.297 47.8992H149.467C149.467 47.8992 150.613 52.6971 156.935 50.8614C156.605 48.8661 156.497 46.7362 156.497 44.1749L156.496 34.3001M0.0507812 13.9104C0.0507812 13.9104 6.61214 40.796 7.65987 45.1594C8.88208 50.2524 11.0849 52.1273 17.4328 50.8614L21.5295 34.1933C22.5683 30.0511 23.2636 27.0979 23.9329 22.8885H24.0494C24.5194 27.1425 25.1861 30.0639 26.0409 34.207C26.0409 34.207 27.7077 41.7745 28.5629 45.7479C29.4189 49.7201 31.8015 52.2251 38.0201 50.8614L47.7824 13.9092H39.9028L36.5685 29.8862C35.672 34.5349 34.8594 38.1715 34.2322 42.4234H34.1208C33.551 38.2089 32.8255 34.7206 31.915 30.1903L28.4464 13.9092H20.2351L16.5227 29.7798C15.472 34.6038 14.4867 38.4975 13.8625 42.6079H13.7489C13.1081 38.7374 12.2551 33.8417 11.3319 29.1743C11.3319 29.1743 9.12789 17.8222 8.35272 13.9092L0.0507812 13.9104ZM62.6873 40.9473C62.6873 41.4586 62.6418 41.9858 62.4997 42.4489C61.9201 44.3723 59.9275 45.9987 57.4361 45.9987C55.3585 45.9987 53.7109 44.8187 53.7109 42.3265C53.7109 38.5121 57.9081 37.4587 62.6882 37.4852L62.6873 40.947V40.9473ZM70.1825 34.3001C70.1825 28.0104 67.495 22.4759 58.4158 22.4759C53.7531 22.4759 50.0505 23.7852 48.0323 24.9522L49.5096 30.0087C51.3548 28.8435 54.2962 27.879 57.0806 27.879C61.6901 27.8662 62.4444 30.4875 62.4444 32.165V32.5622C52.3995 32.5473 46.0555 36.024 46.0555 43.1064C46.0555 47.4341 49.2864 51.4874 54.9016 51.4874C58.3593 51.4874 61.2496 50.1091 62.9824 47.8992H63.1512C63.1512 47.8992 64.2998 52.6971 70.6206 50.8614C70.2901 48.8661 70.1825 46.7362 70.1825 44.1749V34.3001ZM82.6917 43.0175V13.9104H75.1867V50.8626H82.6917V43.0175ZM180.872 13.9104V41.1693C180.872 44.9293 181.581 47.5607 183.092 49.1711C184.416 50.5791 186.592 51.4904 189.202 51.4904C191.422 51.4904 193.604 51.0668 194.634 50.6849L194.537 44.8217C193.771 45.009 192.891 45.1605 191.687 45.1605C189.129 45.1605 188.274 43.5222 188.274 40.1484V29.7186H194.81V22.6474H188.274V13.9104H180.872ZM161.5 23.1028V50.8626H169.242V36.6491C169.242 35.8807 169.288 35.2114 169.41 34.5991C169.983 31.6202 172.259 29.7186 175.53 29.7186C176.426 29.7186 177.068 29.816 177.763 29.9147V22.6474C177.18 22.5312 176.784 22.4768 176.058 22.4768C173.169 22.4768 169.882 24.3411 168.502 28.34H168.293V23.1028H161.5ZM87.9468 23.1028V50.8626H95.4896V34.5842C95.4896 33.8203 95.5794 33.0125 95.8439 32.3122C96.469 30.6733 97.9943 28.7537 100.428 28.7537C103.473 28.7537 104.895 31.3269 104.895 35.0405V50.8605H112.432V34.3839C112.432 33.6551 112.532 32.7765 112.747 32.1338C113.366 30.2684 115.009 28.7517 117.272 28.7517C120.358 28.7517 121.839 31.2796 121.839 35.6507V50.8596H129.381V34.509C129.381 25.8873 125.003 22.4742 120.06 22.4742C117.873 22.4742 116.145 23.022 114.582 23.9796C113.27 24.7881 112.093 25.9336 111.066 27.4394H110.954C109.762 24.4478 106.958 22.4756 103.303 22.4756C98.6087 22.4756 96.4987 24.8556 95.2188 26.8738H95.1065V23.1019H87.9468" fill="#1A75CF"/>
<path d="M266.333 49.5129H266.447C266.598 49.5129 266.695 49.4505 266.695 49.3578C266.695 49.2523 266.604 49.1949 266.464 49.1949C266.416 49.1949 266.366 49.2047 266.334 49.2047V49.5156V49.5126L266.333 49.5129ZM266.316 50.2614H265.915V48.955C266.006 48.9372 266.218 48.9054 266.49 48.9054C266.785 48.9054 266.917 48.947 267.014 49.0124C267.096 49.0695 267.155 49.167 267.155 49.2986C267.155 49.4327 267.032 49.5462 266.85 49.5959V49.6125C266.998 49.652 267.079 49.7596 267.121 49.9484C267.162 50.1368 267.187 50.2138 267.212 50.2623H266.758C266.718 50.2138 266.695 50.0982 266.668 49.9829C266.643 49.8506 266.58 49.7843 266.446 49.7843H266.315L266.316 50.2614ZM266.482 48.5294C265.906 48.5294 265.472 48.9984 265.472 49.5965C265.472 50.179 265.907 50.6543 266.497 50.6543C267.09 50.6641 267.525 50.1793 267.525 49.5869C267.525 48.9972 267.09 48.5294 266.49 48.5294H266.482ZM266.507 48.1748C267.31 48.1748 267.95 48.8067 267.95 49.5866C267.95 50.3758 267.31 51.0086 266.496 51.0086C265.683 51.0086 265.035 50.3749 265.035 49.5869C265.035 48.8067 265.684 48.1751 266.496 48.1751H266.505" fill="#FDBB30"/>
</g>
<defs>
<clipPath id="clip0_37_990">
<rect width="268" height="63.6768" fill="white" transform="translate(0 0.547852)"/>
</clipPath>
</defs>
</svg>
