<svg width="268" height="65" viewBox="0 0 268 65" fill="none" xmlns="http://www.w3.org/2000/svg">
<g clip-path="url(#clip0_37_576)">
<path d="M235.374 22.045C236.866 22.045 238.094 21.2653 238.26 20.258L239.733 3.51368C239.733 1.85867 237.804 0.5 235.378 0.5C232.955 0.5 231.028 1.85866 231.028 3.51397L232.5 20.258C232.662 21.265 233.891 22.045 235.379 22.045H235.374ZM226.37 27.2751C227.118 25.9779 227.062 24.5201 226.273 23.8724L212.579 14.2181C211.156 13.3894 209.021 14.3869 207.81 16.4987C206.594 18.6077 206.809 20.9633 208.229 21.7923L223.392 28.888C224.34 29.2411 225.632 28.5614 226.375 27.2652L226.37 27.2751ZM244.386 27.2661C245.133 28.5623 246.419 29.2423 247.368 28.8888L262.53 21.7932C263.959 20.9645 264.162 18.6087 262.958 16.4996C261.74 14.3899 259.602 13.3903 258.182 14.219L244.487 23.8733C243.705 24.5201 243.646 25.9791 244.391 27.276L244.386 27.2661ZM235.374 42.9612C236.866 42.9612 238.094 43.7344 238.26 44.7426L239.733 61.4845C239.733 63.1446 237.804 64.5003 235.378 64.5003C232.955 64.5003 231.028 63.1446 231.028 61.4845L232.5 44.7426C232.662 43.7344 233.891 42.9612 235.379 42.9612H235.374ZM244.386 37.73C245.133 36.4302 246.419 35.7563 247.368 36.1135L262.53 43.2044C263.959 44.034 264.162 46.392 262.958 48.5028C261.74 50.6057 259.602 51.6079 258.182 50.7804L244.487 41.135C243.705 40.4832 243.646 39.0233 244.391 37.7273H244.385M226.37 37.7282C227.118 39.0233 227.062 40.4832 226.273 41.1362L212.579 50.7813C211.156 51.6088 209.021 50.6066 207.81 48.5037C206.594 46.3928 206.809 44.0349 208.229 43.2053L223.392 36.1144C224.34 35.7572 225.632 36.4311 226.375 37.7312H226.37" fill="#828282"/>
<path d="M148.999 41.1046C148.999 41.6184 148.954 42.1484 148.814 42.6138C148.233 44.5469 146.242 46.1816 143.75 46.1816C141.673 46.1816 140.023 44.9956 140.023 42.4907C140.023 38.657 144.221 37.5983 149.001 37.6249L148.999 41.1043V41.1046ZM156.496 34.4236C156.496 28.102 153.808 22.5394 144.727 22.5394C140.066 22.5394 136.366 23.8554 134.347 25.0282L135.826 30.1104C137.671 28.9393 140.613 27.9699 143.396 27.9699C148.002 27.9571 148.757 30.5916 148.757 32.2777V32.6769C138.716 32.6619 132.369 36.1563 132.369 43.2746C132.369 47.6242 135.602 51.6981 141.221 51.6981C144.674 51.6981 147.566 50.3129 149.297 48.0918H149.468C149.468 48.0918 150.613 52.914 156.935 51.069C156.605 49.0636 156.497 46.9228 156.497 44.3486L156.496 34.4236M0.0509033 13.9304C0.0509033 13.9304 6.61226 40.9525 7.66 45.338C8.88221 50.4569 11.085 52.3413 17.4329 51.069L21.5296 34.3163C22.5685 30.1531 23.2637 27.1848 23.933 22.9541H24.0496C24.5195 27.2296 25.1862 30.166 26.041 34.3301C26.041 34.3301 27.7079 41.936 28.563 45.9295C29.419 49.9218 31.8016 52.4396 38.0203 51.069L47.7825 13.9292H39.9029L36.5686 29.9873C35.6721 34.6596 34.8595 38.3146 34.2324 42.5881H34.1209C33.5511 38.3523 32.8256 34.8463 31.9152 30.2929L28.4465 13.9292H20.2352L16.5228 29.8804C15.4721 34.7289 14.4868 38.6424 13.8626 42.7736H13.7491C13.1082 38.8834 12.2552 33.9629 11.332 29.2718C11.332 29.2718 9.12801 17.8621 8.35284 13.9292L0.0509033 13.9304ZM62.6874 41.1046C62.6874 41.6184 62.6419 42.1484 62.4998 42.6138C61.9202 44.5469 59.9276 46.1816 57.4362 46.1816C55.3586 46.1816 53.711 44.9956 53.711 42.4907C53.711 38.657 57.9082 37.5983 62.6883 37.6249L62.6874 41.1043V41.1046ZM70.1826 34.4236C70.1826 28.102 67.4951 22.5394 58.4159 22.5394C53.7533 22.5394 50.0507 23.8554 48.0325 25.0282L49.5097 30.1104C51.3549 28.9393 54.2963 27.9699 57.0807 27.9699C61.6902 27.9571 62.4446 30.5916 62.4446 32.2777V32.6769C52.3997 32.6619 46.0556 36.1563 46.0556 43.2746C46.0556 47.6242 49.2865 51.6981 54.9017 51.6981C58.3594 51.6981 61.2497 50.3129 62.9825 48.0918H63.1514C63.1514 48.0918 64.2999 52.914 70.6208 51.069C70.2902 49.0636 70.1826 46.9228 70.1826 44.3486V34.4236ZM82.6919 43.1853V13.9304H75.1868V51.0702H82.6919V43.1853ZM180.872 13.9304V41.3277C180.872 45.1068 181.581 47.7515 183.092 49.3701C184.417 50.7852 186.593 51.7011 189.202 51.7011C191.422 51.7011 193.604 51.2754 194.634 50.8915L194.537 44.9986C193.771 45.1868 192.891 45.3392 191.687 45.3392C189.129 45.3392 188.274 43.6925 188.274 40.3016V29.8188H194.81V22.7118H188.274V13.9304H180.872ZM161.5 23.1695V51.0702H169.242V36.7845C169.242 36.0123 169.288 35.3395 169.41 34.7241C169.983 31.7301 172.259 29.8188 175.53 29.8188C176.426 29.8188 177.068 29.9168 177.763 30.016V22.7118C177.18 22.595 176.784 22.5403 176.058 22.5403C173.169 22.5403 169.882 24.414 168.503 28.4333H168.293V23.1695H161.5ZM87.9469 23.1695V51.0702H95.4897V34.7092C95.4897 33.9414 95.5795 33.1294 95.844 32.4256C96.4691 30.7784 97.9945 28.8491 100.428 28.8491C103.474 28.8491 104.896 31.4353 104.896 35.1677V51.0681H112.432V34.5078C112.432 33.7753 112.532 32.8922 112.747 32.2464C113.366 30.3715 115.009 28.847 117.273 28.847C120.358 28.847 121.839 31.3878 121.839 35.781V51.0672H129.381V34.6336C129.381 25.9681 125.003 22.5377 120.06 22.5377C117.873 22.5377 116.145 23.0882 114.582 24.0508C113.27 24.8633 112.093 26.0147 111.066 27.5281H110.954C109.762 24.5213 106.958 22.5391 103.304 22.5391C98.6088 22.5391 96.4988 24.9312 95.2189 26.9596H95.1066V23.1686H87.9469" fill="#828282"/>
<path d="M266.333 49.7138H266.447C266.598 49.7138 266.695 49.6511 266.695 49.5579C266.695 49.4518 266.604 49.3942 266.464 49.3942C266.416 49.3942 266.366 49.404 266.334 49.404V49.7165V49.7135L266.333 49.7138ZM266.316 50.466H265.915V49.1531C266.006 49.1352 266.218 49.1032 266.49 49.1032C266.785 49.1032 266.917 49.145 267.014 49.2107C267.096 49.2681 267.155 49.3661 267.155 49.4984C267.155 49.6332 267.032 49.7473 266.85 49.7972V49.8139C266.998 49.8536 267.079 49.9618 267.121 50.1515C267.162 50.3409 267.187 50.4182 267.212 50.4669H266.758C266.718 50.4182 266.695 50.302 266.668 50.1861C266.643 50.0532 266.58 49.9866 266.446 49.9866H266.315L266.316 50.466ZM266.482 48.7253C265.906 48.7253 265.472 49.1967 265.472 49.7978C265.472 50.3833 265.907 50.861 266.497 50.861C267.09 50.8708 267.525 50.3836 267.525 49.7882C267.525 49.1955 267.09 48.7253 266.49 48.7253H266.482ZM266.507 48.3689C267.31 48.3689 267.95 49.004 267.95 49.7879C267.95 50.5811 267.31 51.2171 266.496 51.2171C265.683 51.2171 265.035 50.5802 265.035 49.7882C265.035 49.004 265.684 48.3692 266.496 48.3692H266.505" fill="#828282"/>
</g>
<defs>
<clipPath id="clip0_37_576">
<rect width="268" height="64" fill="white" transform="translate(0 0.5)"/>
</clipPath>
</defs>
</svg>
